# WaveFront *.obj file (generated by Autodesk ATF)

mtllib Camera Mount.mtl

g Camera Mount

v -5.767767 8.700000 21.067767
v -5.371978 8.700000 20.886647
v -4.987363 8.700000 20.682873
v -4.615217 8.700000 20.457130
v -4.256793 8.700000 20.210178
v -3.913298 8.700000 19.942850
v -3.585890 8.700000 19.656046
v -3.275670 8.700000 19.350732
v -2.983684 8.700000 19.027936
v -2.710916 8.700000 18.688745
v -2.458284 8.700000 18.334302
v -2.226638 8.700000 17.965801
v -2.016759 8.700000 17.584482
v -1.829355 8.700000 17.191631
v -1.829355 4.000000 17.191631
v -2.016759 4.000000 17.584482
v -2.226638 4.000000 17.965801
v -2.458284 4.000000 18.334302
v -2.710916 4.000000 18.688745
v -2.983684 4.000000 19.027936
v -3.275670 4.000000 19.350732
v -3.585890 4.000000 19.656046
v -3.913298 4.000000 19.942850
v -4.256793 4.000000 20.210178
v -4.615217 4.000000 20.457130
v -4.987363 4.000000 20.682873
v -5.371978 4.000000 20.886647
v -5.767767 4.000000 21.067767
v 5.767767 4.000000 21.067767
v 5.371979 4.000000 20.886647
v 4.987363 4.000000 20.682873
v 4.615217 4.000000 20.457130
v 4.256793 4.000000 20.210178
v 3.913298 4.000000 19.942850
v 3.585890 4.000000 19.656046
v 3.275670 4.000000 19.350732
v 2.983684 4.000000 19.027936
v 2.710916 4.000000 18.688745
v 2.458284 4.000000 18.334302
v 2.226638 4.000000 17.965801
v 2.016759 4.000000 17.584482
v 1.829355 4.000000 17.191631
v 1.829355 8.700000 17.191631
v 2.016759 8.700000 17.584482
v 2.226638 8.700000 17.965801
v 2.458284 8.700000 18.334302
v 2.710916 8.700000 18.688745
v 2.983684 8.700000 19.027936
v 3.275670 8.700000 19.350732
v 3.585890 8.700000 19.656046
v 3.913298 8.700000 19.942850
v 4.256793 8.700000 20.210178
v 4.615217 8.700000 20.457130
v 4.987363 8.700000 20.682873
v 5.371979 8.700000 20.886647
v 5.767767 8.700000 21.067767
v 1.000000 4.000000 18.000000
v 0.986361 4.000000 18.164595
v 0.945817 4.000000 18.324700
v 0.879474 4.000000 18.475948
v 0.789141 4.000000 18.614213
v 0.677282 4.000000 18.735724
v 0.546948 4.000000 18.837167
v 0.401695 4.000000 18.915774
v 0.245485 4.000000 18.969401
v 0.082579 4.000000 18.996585
v -0.082579 4.000000 18.996585
v -0.245485 4.000000 18.969401
v -0.401695 4.000000 18.915774
v -0.546948 4.000000 18.837167
v -0.677282 4.000000 18.735724
v -0.789141 4.000000 18.614213
v -0.879474 4.000000 18.475948
v -0.945817 4.000000 18.324700
v -0.986361 4.000000 18.164595
v -1.000000 4.000000 18.000000
v -0.986361 4.000000 17.835406
v -0.945817 4.000000 17.675301
v -0.879474 4.000000 17.524053
v -0.789141 4.000000 17.385788
v -0.677282 4.000000 17.264276
v -0.546948 4.000000 17.162834
v -0.401695 4.000000 17.084227
v -0.245485 4.000000 17.030600
v -0.082579 4.000000 17.003416
v 0.082579 4.000000 17.003416
v 0.245485 4.000000 17.030600
v 0.401695 4.000000 17.084227
v 0.546948 4.000000 17.162834
v 0.677282 4.000000 17.264276
v 0.789141 4.000000 17.385788
v 0.879474 4.000000 17.524053
v 0.945817 4.000000 17.675301
v 0.986361 4.000000 17.835406
v 1.000000 8.700000 18.000000
v 0.986361 8.700000 17.835406
v 0.945817 8.700000 17.675301
v 0.879474 8.700000 17.524053
v 0.789141 8.700000 17.385788
v 0.677282 8.700000 17.264276
v 0.546948 8.700000 17.162834
v 0.401695 8.700000 17.084227
v 0.245485 8.700000 17.030600
v 0.082579 8.700000 17.003416
v -0.082579 8.700000 17.003416
v -0.245485 8.700000 17.030600
v -0.401695 8.700000 17.084227
v -0.546948 8.700000 17.162834
v -0.677282 8.700000 17.264276
v -0.789141 8.700000 17.385788
v -0.879474 8.700000 17.524053
v -0.945817 8.700000 17.675301
v -0.986361 8.700000 17.835406
v -1.000000 8.700000 18.000000
v -0.986361 8.700000 18.164595
v -0.945817 8.700000 18.324700
v -0.879474 8.700000 18.475948
v -0.789141 8.700000 18.614213
v -0.677282 8.700000 18.735724
v -0.546948 8.700000 18.837167
v -0.401695 8.700000 18.915774
v -0.245485 8.700000 18.969401
v -0.082579 8.700000 18.996585
v 0.082579 8.700000 18.996585
v 0.245485 8.700000 18.969401
v 0.401695 8.700000 18.915774
v 0.546948 8.700000 18.837167
v 0.677282 8.700000 18.735724
v 0.789141 8.700000 18.614213
v 0.879474 8.700000 18.475948
v 0.945817 8.700000 18.324700
v 0.986361 8.700000 18.164595
v 1.000000 6.350000 18.000000
v 0.986361 6.350000 18.164595
v 0.945817 6.350000 18.324700
v 0.879474 6.350000 18.475948
v 0.789141 6.350000 18.614213
v 0.677282 6.350000 18.735724
v 0.546948 6.350000 18.837167
v 0.401695 6.350000 18.915774
v 0.245485 6.350000 18.969401
v 0.082579 6.350000 18.996585
v -0.082579 6.350000 18.996585
v -0.245485 6.350000 18.969401
v -0.401695 6.350000 18.915774
v -0.546948 6.350000 18.837167
v -0.677282 6.350000 18.735724
v -0.789141 6.350000 18.614213
v -0.879474 6.350000 18.475948
v -0.945817 6.350000 18.324700
v -0.986361 6.350000 18.164595
v -1.000000 6.350000 18.000000
v -0.986361 6.350000 17.835406
v -0.945817 6.350000 17.675301
v -0.879474 6.350000 17.524053
v -0.789141 6.350000 17.385788
v -0.677282 6.350000 17.264276
v -0.546948 6.350000 17.162834
v -0.401695 6.350000 17.084227
v -0.245485 6.350000 17.030600
v -0.082579 6.350000 17.003416
v 0.082579 6.350000 17.003416
v 0.245485 6.350000 17.030600
v 0.401695 6.350000 17.084227
v 0.546948 6.350000 17.162834
v 0.677282 6.350000 17.264276
v 0.789141 6.350000 17.385788
v 0.879474 6.350000 17.524053
v 0.945817 6.350000 17.675301
v 0.986361 6.350000 17.835406
v -1.724037 8.700000 16.986246
v -1.595756 8.700000 16.794363
v -1.446223 8.700000 16.618538
v -1.277427 8.700000 16.461111
v -1.091618 8.700000 16.324181
v -0.891270 8.700000 16.209571
v -0.679052 8.700000 16.118807
v -0.457789 8.700000 16.053098
v -0.230429 8.700000 16.013319
v -0.000000 8.700000 16.000000
v 0.230429 8.700000 16.013319
v 0.457789 8.700000 16.053098
v 0.679052 8.700000 16.118807
v 0.891270 8.700000 16.209571
v 1.091618 8.700000 16.324181
v 1.277427 8.700000 16.461111
v 1.446223 8.700000 16.618537
v 1.595756 8.700000 16.794363
v 1.724037 8.700000 16.986246
v 1.724037 4.000000 16.986246
v 1.595756 4.000000 16.794363
v 1.446223 4.000000 16.618537
v 1.277427 4.000000 16.461111
v 1.091618 4.000000 16.324181
v 0.891270 4.000000 16.209571
v 0.679052 4.000000 16.118807
v 0.457789 4.000000 16.053098
v 0.230429 4.000000 16.013319
v -0.000000 4.000000 16.000000
v -0.230429 4.000000 16.013319
v -0.457789 4.000000 16.053098
v -0.679052 4.000000 16.118807
v -0.891270 4.000000 16.209571
v -1.091618 4.000000 16.324181
v -1.277427 4.000000 16.461111
v -1.446223 4.000000 16.618538
v -1.595756 4.000000 16.794363
v -1.724037 4.000000 16.986246
v -7.000000 4.000000 30.500000
v -5.500000 4.000000 32.000000
v -5.500000 8.700000 32.000000
v -7.000000 8.700000 30.500000
v -4.150592 8.700000 32.000000
v -4.150592 8.700000 31.189868
v -5.158373 8.700000 31.189868
v -5.202830 8.700000 31.187761
v -5.245582 8.700000 31.175387
v -5.284291 8.700000 31.153423
v -5.316842 8.700000 31.123069
v -5.341453 8.700000 31.085987
v -5.356780 8.700000 31.044202
v -5.361983 8.700000 31.000000
v -5.361983 8.700000 25.927089
v -6.166154 8.700000 25.927089
v -6.166154 8.700000 22.428024
v -1.504027 8.700000 22.428024
v -1.504027 8.700000 21.419251
v 1.535040 8.700000 21.419251
v 1.535040 8.700000 22.428024
v 6.217651 8.700000 22.428024
v 6.217651 8.700000 25.927089
v 5.445753 8.700000 25.927089
v 5.445753 8.700000 31.000000
v 5.434893 8.700000 31.050188
v 5.412099 8.700000 31.096201
v 5.378752 8.700000 31.135248
v 5.336875 8.700000 31.164964
v 5.289006 8.700000 31.183546
v 5.238047 8.700000 31.189868
v 4.150592 8.700000 31.189868
v 4.150592 8.700000 32.000000
v 5.500000 8.700000 32.000000
v 7.000000 8.700000 30.500000
v 7.000000 8.700000 22.300000
v -7.000000 8.700000 22.300000
v 5.500000 4.000000 32.000000
v 4.064721 8.372644 32.000000
v 3.953075 8.053158 32.000000
v 3.816362 7.743568 32.000000
v 3.655449 7.445838 32.000000
v 3.471357 7.161856 32.000000
v 3.265252 6.893421 32.000000
v 3.038443 6.642237 32.000000
v 2.792366 6.409896 32.000000
v 2.528582 6.197872 32.000000
v 2.248765 6.007509 32.000000
v 1.954687 5.840013 32.000000
v 1.648215 5.696448 32.000000
v 1.331292 5.577723 32.000000
v 1.005927 5.484592 32.000000
v 0.674183 5.417644 32.000000
v 0.338163 5.377305 32.000000
v 0.000000 5.363831 32.000000
v -0.338163 5.377305 32.000000
v -0.674183 5.417644 32.000000
v -1.005927 5.484592 32.000000
v -1.331292 5.577723 32.000000
v -1.648215 5.696448 32.000000
v -1.954687 5.840013 32.000000
v -2.248765 6.007509 32.000000
v -2.528582 6.197872 32.000000
v -2.792366 6.409896 32.000000
v -3.038443 6.642237 32.000000
v -3.265252 6.893421 32.000000
v -3.471357 7.161856 32.000000
v -3.655449 7.445838 32.000000
v -3.816362 7.743568 32.000000
v -3.953075 8.053158 32.000000
v -4.064721 8.372644 32.000000
v 7.000000 4.000000 30.500000
v 5.445753 4.000000 31.000000
v 5.434893 4.000000 31.050188
v 5.412099 4.000000 31.096201
v 5.378752 4.000000 31.135248
v 5.336875 4.000000 31.164964
v 5.289006 4.000000 31.183546
v 5.238047 4.000000 31.189868
v 5.434893 4.940000 31.050188
v 5.434893 5.880000 31.050188
v 5.434893 6.820000 31.050188
v 5.434893 7.760000 31.050188
v 5.412099 4.940000 31.096201
v 5.412099 5.880000 31.096201
v 5.412099 6.820000 31.096201
v 5.412099 7.760000 31.096201
v 5.378752 4.940000 31.135248
v 5.378752 5.880000 31.135248
v 5.378752 6.820000 31.135248
v 5.378752 7.760000 31.135248
v 5.336875 4.940000 31.164964
v 5.336875 5.880000 31.164964
v 5.336875 6.820000 31.164964
v 5.336875 7.760000 31.164964
v 5.289006 4.940000 31.183546
v 5.289006 5.880000 31.183546
v 5.289006 6.820000 31.183546
v 5.289006 7.760000 31.183546
v 5.445753 4.000000 25.927089
v -5.158373 4.000000 31.189868
v -4.064721 8.372644 31.189868
v -3.953075 8.053158 31.189868
v -3.816362 7.743568 31.189868
v -3.655449 7.445838 31.189868
v -3.471357 7.161856 31.189868
v -3.265252 6.893421 31.189868
v -3.038443 6.642237 31.189868
v -2.792366 6.409896 31.189868
v -2.528582 6.197872 31.189868
v -2.248765 6.007509 31.189868
v -1.954687 5.840013 31.189868
v -1.648215 5.696448 31.189868
v -1.331292 5.577723 31.189868
v -1.005927 5.484592 31.189868
v -0.674183 5.417644 31.189868
v -0.338163 5.377305 31.189868
v 0.000000 5.363831 31.189868
v 0.338163 5.377305 31.189868
v 0.674183 5.417644 31.189868
v 1.005927 5.484592 31.189868
v 1.331292 5.577723 31.189868
v 1.648215 5.696448 31.189868
v 1.954687 5.840013 31.189868
v 2.248765 6.007509 31.189868
v 2.528582 6.197872 31.189868
v 2.792366 6.409896 31.189868
v 3.038443 6.642237 31.189868
v 3.265252 6.893421 31.189868
v 3.471357 7.161856 31.189868
v 3.655449 7.445838 31.189868
v 3.816362 7.743568 31.189868
v 3.953075 8.053158 31.189868
v 4.064721 8.372644 31.189868
v -5.361983 4.000000 31.000000
v -5.361983 4.000000 25.927089
v -5.202830 4.000000 31.187761
v -5.245582 4.000000 31.175387
v -5.284291 4.000000 31.153423
v -5.316842 4.000000 31.123069
v -5.341453 4.000000 31.085987
v -5.356780 4.000000 31.044202
v -5.202830 4.940000 31.187761
v -5.202830 5.880000 31.187761
v -5.202830 6.820000 31.187761
v -5.202830 7.760000 31.187761
v -5.245582 4.940000 31.175387
v -5.245582 5.880000 31.175387
v -5.245582 6.820000 31.175387
v -5.245582 7.760000 31.175387
v -5.284291 4.940000 31.153423
v -5.284291 5.880000 31.153423
v -5.284291 6.820000 31.153423
v -5.284291 7.760000 31.153423
v -5.316842 4.940000 31.123069
v -5.316842 5.880000 31.123069
v -5.316842 6.820000 31.123069
v -5.316842 7.760000 31.123069
v -5.341453 4.940000 31.085987
v -5.341453 5.880000 31.085987
v -5.341453 6.820000 31.085987
v -5.341453 7.760000 31.085987
v -5.356780 4.940000 31.044202
v -5.356780 5.880000 31.044202
v -5.356780 6.820000 31.044202
v -5.356780 7.760000 31.044202
v -7.000000 4.000000 22.300000
v 7.000000 4.000000 22.300000
v 6.217651 4.000000 25.927089
v 6.217651 4.000000 22.428024
v 1.535040 4.000000 22.428024
v 1.535040 4.000000 21.419251
v -1.504027 4.000000 21.419251
v -1.504027 4.000000 22.428024
v -6.166154 4.000000 22.428024
v -6.166154 4.000000 25.927089
vt -0.235000 -0.565920 0.000000
vt 0.235000 -0.565920 0.000000
vt -0.235000 -0.522388 0.000000
vt 0.235000 -0.522388 0.000000
vt -0.235000 -0.478855 0.000000
vt 0.235000 -0.478855 0.000000
vt -0.235000 -0.435323 0.000000
vt 0.235000 -0.435323 0.000000
vt -0.235000 -0.391791 0.000000
vt 0.235000 -0.391791 0.000000
vt -0.235000 -0.348258 0.000000
vt 0.235000 -0.348258 0.000000
vt -0.235000 -0.304726 0.000000
vt 0.235000 -0.304726 0.000000
vt -0.235000 -0.261194 0.000000
vt 0.235000 -0.261194 0.000000
vt -0.235000 -0.217661 0.000000
vt 0.235000 -0.217661 0.000000
vt -0.235000 -0.174129 0.000000
vt 0.235000 -0.174129 0.000000
vt -0.235000 -0.130597 0.000000
vt 0.235000 -0.130597 0.000000
vt -0.235000 -0.087065 0.000000
vt 0.235000 -0.087065 0.000000
vt -0.235000 -0.043532 0.000000
vt 0.235000 -0.043532 0.000000
vt -0.235000 0.000000 0.000000
vt 0.235000 0.000000 0.000000
vt -0.235000 -0.565920 0.000000
vt 0.235000 -0.565920 0.000000
vt -0.235000 -0.522388 0.000000
vt 0.235000 -0.522388 0.000000
vt -0.235000 -0.478855 0.000000
vt 0.235000 -0.478855 0.000000
vt -0.235000 -0.435323 0.000000
vt 0.235000 -0.435323 0.000000
vt -0.235000 -0.391791 0.000000
vt 0.235000 -0.391791 0.000000
vt -0.235000 -0.348258 0.000000
vt 0.235000 -0.348258 0.000000
vt -0.235000 -0.304726 0.000000
vt 0.235000 -0.304726 0.000000
vt -0.235000 -0.261194 0.000000
vt 0.235000 -0.261194 0.000000
vt -0.235000 -0.217661 0.000000
vt 0.235000 -0.217661 0.000000
vt -0.235000 -0.174129 0.000000
vt 0.235000 -0.174129 0.000000
vt -0.235000 -0.130597 0.000000
vt 0.235000 -0.130597 0.000000
vt -0.235000 -0.087065 0.000000
vt 0.235000 -0.087065 0.000000
vt -0.235000 -0.043532 0.000000
vt 0.235000 -0.043532 0.000000
vt -0.235000 0.000000 0.000000
vt 0.235000 0.000000 0.000000
vt 0.470000 -0.297625 0.000000
vt 0.235000 -0.297625 0.000000
vt 0.470000 -0.314159 0.000000
vt 0.235000 -0.314159 0.000000
vt 0.470000 0.314159 0.000000
vt 0.235000 0.314159 0.000000
vt 0.470000 0.297625 0.000000
vt 0.235000 0.297625 0.000000
vt 0.470000 0.281090 0.000000
vt 0.235000 0.281090 0.000000
vt 0.470000 0.264555 0.000000
vt 0.235000 0.264555 0.000000
vt 0.470000 0.248020 0.000000
vt 0.235000 0.248020 0.000000
vt 0.470000 0.231486 0.000000
vt 0.235000 0.231486 0.000000
vt 0.470000 0.214951 0.000000
vt 0.235000 0.214951 0.000000
vt 0.470000 0.198416 0.000000
vt 0.235000 0.198416 0.000000
vt 0.470000 0.181882 0.000000
vt 0.235000 0.181882 0.000000
vt 0.470000 0.165347 0.000000
vt 0.235000 0.165347 0.000000
vt 0.470000 0.148812 0.000000
vt 0.235000 0.148812 0.000000
vt 0.470000 0.132278 0.000000
vt 0.235000 0.132278 0.000000
vt 0.470000 0.115743 0.000000
vt 0.235000 0.115743 0.000000
vt 0.470000 0.099208 0.000000
vt 0.235000 0.099208 0.000000
vt 0.470000 0.082673 0.000000
vt 0.235000 0.082673 0.000000
vt 0.470000 0.066139 0.000000
vt 0.235000 0.066139 0.000000
vt 0.470000 0.049604 0.000000
vt 0.235000 0.049604 0.000000
vt 0.470000 0.033069 0.000000
vt 0.235000 0.033069 0.000000
vt 0.470000 0.016535 0.000000
vt 0.235000 0.016535 0.000000
vt 0.470000 0.000000 0.000000
vt 0.235000 0.000000 0.000000
vt 0.470000 -0.016535 0.000000
vt 0.235000 -0.016535 0.000000
vt 0.470000 -0.033069 0.000000
vt 0.235000 -0.033069 0.000000
vt 0.470000 -0.049604 0.000000
vt 0.235000 -0.049604 0.000000
vt 0.470000 -0.066139 0.000000
vt 0.235000 -0.066139 0.000000
vt 0.470000 -0.082673 0.000000
vt 0.235000 -0.082673 0.000000
vt 0.470000 -0.099208 0.000000
vt 0.235000 -0.099208 0.000000
vt 0.470000 -0.115743 0.000000
vt 0.235000 -0.115743 0.000000
vt 0.470000 -0.132278 0.000000
vt 0.235000 -0.132278 0.000000
vt 0.470000 -0.148812 0.000000
vt 0.235000 -0.148812 0.000000
vt 0.470000 -0.165347 0.000000
vt 0.235000 -0.165347 0.000000
vt 0.470000 -0.181882 0.000000
vt 0.235000 -0.181882 0.000000
vt 0.470000 -0.198416 0.000000
vt 0.235000 -0.198416 0.000000
vt 0.470000 -0.214951 0.000000
vt 0.235000 -0.214951 0.000000
vt 0.470000 -0.231486 0.000000
vt 0.235000 -0.231486 0.000000
vt 0.470000 -0.248020 0.000000
vt 0.235000 -0.248020 0.000000
vt 0.470000 -0.264555 0.000000
vt 0.235000 -0.264555 0.000000
vt 0.470000 -0.281090 0.000000
vt 0.235000 -0.281090 0.000000
vt -0.000000 0.297625 0.000000
vt 0.000000 0.314159 0.000000
vt 0.000000 -0.314159 0.000000
vt 0.000000 -0.297625 0.000000
vt 0.000000 -0.281090 0.000000
vt 0.000000 -0.264555 0.000000
vt 0.000000 -0.248020 0.000000
vt 0.000000 -0.231486 0.000000
vt -0.000000 -0.214951 0.000000
vt -0.000000 -0.198416 0.000000
vt -0.000000 -0.181882 0.000000
vt 0.000000 -0.165347 0.000000
vt 0.000000 -0.148812 0.000000
vt -0.000000 -0.132278 0.000000
vt -0.000000 -0.115743 0.000000
vt -0.000000 -0.099208 0.000000
vt 0.000000 -0.082673 0.000000
vt 0.000000 -0.066139 0.000000
vt 0.000000 -0.049604 0.000000
vt 0.000000 -0.033069 0.000000
vt 0.000000 -0.016535 0.000000
vt 0.000000 0.000000 0.000000
vt -0.000000 0.016535 0.000000
vt -0.000000 0.033069 0.000000
vt -0.000000 0.049604 0.000000
vt -0.000000 0.066139 0.000000
vt -0.000000 0.082673 0.000000
vt -0.000000 0.099208 0.000000
vt -0.000000 0.115743 0.000000
vt -0.000000 0.132278 0.000000
vt -0.000000 0.148812 0.000000
vt 0.000000 0.165347 0.000000
vt -0.000000 0.181882 0.000000
vt -0.000000 0.198416 0.000000
vt -0.000000 0.214951 0.000000
vt 0.000000 0.231486 0.000000
vt 0.000000 0.248020 0.000000
vt -0.000000 0.264555 0.000000
vt 0.000000 0.281090 0.000000
vt -0.470000 0.083217 0.000000
vt -0.000000 0.083217 0.000000
vt -0.470000 0.106312 0.000000
vt 0.000000 0.106312 0.000000
vt -0.470000 0.129406 0.000000
vt 0.000000 0.129406 0.000000
vt -0.470000 0.152500 0.000000
vt -0.000000 0.152500 0.000000
vt -0.470000 0.175594 0.000000
vt -0.000000 0.175594 0.000000
vt -0.470000 0.198688 0.000000
vt 0.000000 0.198688 0.000000
vt -0.470000 0.221783 0.000000
vt 0.000000 0.221783 0.000000
vt -0.470000 0.244877 0.000000
vt 0.000000 0.244877 0.000000
vt -0.470000 0.267971 0.000000
vt 0.000000 0.267971 0.000000
vt -0.470000 0.291065 0.000000
vt -0.000000 0.291065 0.000000
vt -0.470000 0.314159 0.000000
vt -0.000000 0.314159 0.000000
vt -0.470000 0.337253 0.000000
vt -0.000000 0.337253 0.000000
vt -0.470000 0.360348 0.000000
vt -0.000000 0.360348 0.000000
vt -0.470000 0.383442 0.000000
vt -0.000000 0.383442 0.000000
vt -0.470000 0.406536 0.000000
vt -0.000000 0.406536 0.000000
vt -0.470000 0.429630 0.000000
vt -0.000000 0.429630 0.000000
vt -0.470000 0.452724 0.000000
vt -0.000000 0.452724 0.000000
vt -0.470000 0.475819 0.000000
vt -0.000000 0.475819 0.000000
vt -0.470000 0.498913 0.000000
vt -0.000000 0.498913 0.000000
vt -0.470000 0.522007 0.000000
vt -0.000000 0.522007 0.000000
vt -0.470000 0.545101 0.000000
vt -0.000000 0.545101 0.000000
vt -0.106066 -0.235000 0.000000
vt 0.106066 -0.235000 0.000000
vt -0.106066 0.235000 0.000000
vt 0.106066 0.235000 0.000000
vt 0.748541 -0.098636 0.000000
vt 0.768420 -0.222664 0.000000
vt 0.765000 -0.100000 0.000000
vt 0.806552 -0.201676 0.000000
vt 0.781459 -0.098636 0.000000
vt 0.845837 -0.182935 0.000000
vt 0.797470 -0.094582 0.000000
vt 0.866375 -0.172404 0.000000
vt 0.812595 -0.087947 0.000000
vt 0.885564 -0.159576 0.000000
vt 0.826421 -0.078914 0.000000
vt 0.903146 -0.144622 0.000000
vt 0.918889 -0.127743 0.000000
vt 0.732530 -0.094582 0.000000
vt 0.731570 -0.245828 0.000000
vt 0.717405 -0.087947 0.000000
vt 0.696126 -0.271092 0.000000
vt 0.703579 -0.078914 0.000000
vt 0.423075 -0.153504 0.000000
vt 0.691428 -0.067728 0.000000
vt 0.681283 -0.054695 0.000000
vt 0.673423 -0.040170 0.000000
vt 0.668060 -0.024549 0.000000
vt 0.665342 -0.008258 0.000000
vt 0.423075 0.150403 0.000000
vt 0.665342 0.008258 0.000000
vt 0.668060 0.024549 0.000000
vt 0.673423 0.040170 0.000000
vt 0.681283 0.054695 0.000000
vt 0.691428 0.067728 0.000000
vt 0.703579 0.078914 0.000000
vt 0.696126 0.271092 0.000000
vt 0.662206 0.298368 0.000000
vt 0.717405 0.087947 0.000000
vt 0.731570 0.245828 0.000000
vt 0.732530 0.094582 0.000000
vt 0.768420 0.222664 0.000000
vt 0.748541 0.098636 0.000000
vt 0.765000 0.100000 0.000000
vt 0.806552 0.201676 0.000000
vt 0.781459 0.098636 0.000000
vt 0.845837 0.182935 0.000000
vt 0.797470 0.094582 0.000000
vt 0.866375 0.172404 0.000000
vt 0.812595 0.087947 0.000000
vt 0.885564 0.159576 0.000000
vt 0.826421 0.078914 0.000000
vt 0.903146 0.144622 0.000000
vt 0.918889 0.127743 0.000000
vt 0.838572 0.067728 0.000000
vt 0.932582 0.109162 0.000000
vt 0.848717 0.054695 0.000000
vt 0.944043 0.089127 0.000000
vt 0.856577 0.040170 0.000000
vt 0.953119 0.067905 0.000000
vt 0.959690 0.045779 0.000000
vt 0.861940 0.024549 0.000000
vt 0.963668 0.023043 0.000000
vt 0.864658 0.008258 0.000000
vt 0.965000 0.000000 0.000000
vt 0.864658 -0.008258 0.000000
vt 0.963668 -0.023043 0.000000
vt 0.861940 -0.024549 0.000000
vt 0.959690 -0.045779 0.000000
vt 0.856577 -0.040170 0.000000
vt 0.953119 -0.067905 0.000000
vt 0.944043 -0.089127 0.000000
vt 0.848717 -0.054695 0.000000
vt 0.932582 -0.109162 0.000000
vt 0.838572 -0.067728 0.000000
vt -0.635000 0.550000 0.000000
vt -0.539420 0.535678 0.000000
vt -0.485000 0.700000 0.000000
vt -0.535000 0.536198 0.000000
vt -0.027709 0.536198 0.000000
vt -0.635000 0.415059 0.000000
vt -0.553987 0.515837 0.000000
vt -0.553776 0.520283 0.000000
vt -0.552539 0.524558 0.000000
vt -0.553987 0.415059 0.000000
vt -0.550342 0.528429 0.000000
vt -0.547307 0.531684 0.000000
vt -0.543599 0.534145 0.000000
vt -0.027709 0.616615 0.000000
vt 0.335000 0.700000 0.000000
vt 0.322198 0.616615 0.000000
vt 0.458223 0.576777 0.000000
vt 0.476335 0.537198 0.000000
vt 0.496713 0.498736 0.000000
vt 0.322198 0.150403 0.000000
vt 0.519287 0.461522 0.000000
vt 0.543982 0.425679 0.000000
vt 0.570715 0.391330 0.000000
vt 0.599395 0.358589 0.000000
vt 0.629927 0.327567 0.000000
vt 0.322198 -0.153504 0.000000
vt 0.543982 -0.425679 0.000000
vt 0.570715 -0.391330 0.000000
vt 0.599395 -0.358589 0.000000
vt 0.322198 -0.621765 0.000000
vt 0.496713 -0.498736 0.000000
vt 0.519287 -0.461522 0.000000
vt -0.027709 -0.621765 0.000000
vt 0.335000 -0.700000 0.000000
vt 0.458223 -0.576777 0.000000
vt 0.476335 -0.537198 0.000000
vt -0.485000 -0.700000 0.000000
vt -0.027709 -0.544575 0.000000
vt -0.535000 -0.544575 0.000000
vt -0.540019 -0.543489 0.000000
vt -0.635000 -0.550000 0.000000
vt -0.544620 -0.541210 0.000000
vt -0.548525 -0.537875 0.000000
vt -0.551496 -0.533687 0.000000
vt -0.553355 -0.528901 0.000000
vt -0.553987 -0.523805 0.000000
vt -0.553987 -0.415059 0.000000
vt -0.635000 -0.415059 0.000000
vt 0.629927 -0.327567 0.000000
vt 0.662206 -0.298368 0.000000
vt -0.235000 0.550000 0.000000
vt 0.081186 0.347136 0.000000
vt 0.235000 0.550000 0.000000
vt 0.109584 0.365545 0.000000
vt 0.139357 0.381636 0.000000
vt -0.235000 -0.550000 0.000000
vt -0.098617 0.000000 0.000000
vt -0.097269 0.033816 0.000000
vt -0.093236 0.067418 0.000000
vt 0.235000 -0.550000 0.000000
vt 0.081186 -0.347136 0.000000
vt 0.054342 -0.326525 0.000000
vt 0.029224 -0.303844 0.000000
vt 0.235000 -0.415059 0.000000
vt 0.202264 -0.406472 0.000000
vt 0.170316 -0.395307 0.000000
vt 0.139357 -0.381636 0.000000
vt 0.109584 -0.365545 0.000000
vt 0.005990 -0.279237 0.000000
vt -0.015213 -0.252858 0.000000
vt -0.034249 -0.224876 0.000000
vt -0.050999 -0.195469 0.000000
vt -0.065355 -0.164822 0.000000
vt -0.077228 -0.133129 0.000000
vt -0.086541 -0.100593 0.000000
vt -0.093236 -0.067418 0.000000
vt -0.097269 -0.033816 0.000000
vt -0.086541 0.100593 0.000000
vt -0.077228 0.133129 0.000000
vt -0.065355 0.164822 0.000000
vt -0.050999 0.195469 0.000000
vt -0.034249 0.224876 0.000000
vt -0.015213 0.252858 0.000000
vt 0.005990 0.279237 0.000000
vt 0.029224 0.303844 0.000000
vt 0.054342 0.326525 0.000000
vt 0.170316 0.395307 0.000000
vt 0.202264 0.406472 0.000000
vt 0.235000 0.415059 0.000000
vt -0.106066 -0.235000 0.000000
vt 0.106066 -0.235000 0.000000
vt -0.106066 0.235000 0.000000
vt 0.106066 0.235000 0.000000
vt 0.470000 -0.025740 0.000000
vt 0.376000 -0.025740 0.000000
vt 0.470000 -0.030888 0.000000
vt 0.282000 -0.025740 0.000000
vt 0.188000 -0.025740 0.000000
vt 0.188000 -0.020592 0.000000
vt 0.094000 -0.020592 0.000000
vt 0.094000 -0.015444 0.000000
vt 0.000000 -0.015444 0.000000
vt 0.000000 -0.010296 0.000000
vt 0.094000 -0.010296 0.000000
vt 0.000000 -0.005148 0.000000
vt 0.094000 -0.005148 0.000000
vt 0.000000 0.000000 0.000000
vt 0.188000 -0.005148 0.000000
vt 0.282000 -0.005148 0.000000
vt 0.282000 -0.010296 0.000000
vt 0.376000 -0.010296 0.000000
vt 0.376000 -0.015444 0.000000
vt 0.470000 -0.015444 0.000000
vt 0.470000 -0.020592 0.000000
vt 0.376000 -0.020592 0.000000
vt 0.470000 -0.010296 0.000000
vt 0.376000 -0.005148 0.000000
vt 0.470000 0.000000 0.000000
vt 0.470000 -0.005148 0.000000
vt 0.000000 -0.020592 0.000000
vt 0.094000 -0.025740 0.000000
vt 0.000000 -0.030888 0.000000
vt 0.000000 -0.025740 0.000000
vt 0.282000 -0.020592 0.000000
vt 0.282000 -0.015444 0.000000
vt 0.188000 -0.015444 0.000000
vt 0.188000 -0.010296 0.000000
vt 0.000000 0.470000 0.000000
vt -0.507291 0.470000 0.000000
vt -0.000000 0.000000 0.000000
vt -0.507291 0.000000 0.000000
vt -1.039642 0.470000 0.000000
vt -0.523805 0.333617 0.000000
vt -0.000000 0.470000 0.000000
vt -0.489988 0.332269 0.000000
vt -0.456386 0.328236 0.000000
vt -1.039642 0.000000 0.000000
vt -0.889350 0.125416 0.000000
vt -0.870940 0.153814 0.000000
vt -0.850330 0.180658 0.000000
vt -0.938864 0.000000 0.000000
vt -0.930277 0.032736 0.000000
vt -0.919112 0.064684 0.000000
vt -0.905441 0.095643 0.000000
vt -0.827649 0.205776 0.000000
vt -0.803041 0.229010 0.000000
vt -0.776663 0.250213 0.000000
vt -0.748681 0.269249 0.000000
vt -0.719273 0.285999 0.000000
vt -0.688626 0.300355 0.000000
vt -0.656934 0.312228 0.000000
vt -0.624397 0.321541 0.000000
vt -0.591223 0.328236 0.000000
vt -0.557621 0.332269 0.000000
vt -0.423212 0.321541 0.000000
vt -0.390676 0.312228 0.000000
vt -0.358983 0.300355 0.000000
vt -0.328336 0.285999 0.000000
vt -0.298928 0.269249 0.000000
vt -0.270947 0.250213 0.000000
vt -0.244568 0.229010 0.000000
vt -0.219960 0.205776 0.000000
vt -0.197280 0.180658 0.000000
vt -0.176669 0.153814 0.000000
vt -0.158260 0.125416 0.000000
vt 0.000000 0.000000 0.000000
vt -0.142169 0.095643 0.000000
vt -0.128497 0.064684 0.000000
vt -0.117333 0.032736 0.000000
vt -0.108746 0.000000 0.000000
vt -0.000000 0.470000 0.000000
vt -0.507291 0.470000 0.000000
vt 0.000000 0.000000 0.000000
vt -0.507291 0.000000 0.000000
vt 0.470000 -0.026765 0.000000
vt 0.376000 -0.026765 0.000000
vt 0.470000 -0.031226 0.000000
vt 0.282000 -0.026765 0.000000
vt 0.188000 -0.026765 0.000000
vt 0.188000 -0.022304 0.000000
vt 0.094000 -0.022304 0.000000
vt 0.094000 -0.017844 0.000000
vt 0.000000 -0.017844 0.000000
vt 0.000000 -0.013383 0.000000
vt 0.094000 -0.013383 0.000000
vt 0.000000 -0.008922 0.000000
vt 0.094000 -0.008922 0.000000
vt 0.000000 -0.004461 0.000000
vt 0.094000 -0.004461 0.000000
vt 0.000000 0.000000 0.000000
vt 0.188000 -0.004461 0.000000
vt 0.282000 -0.004461 0.000000
vt 0.282000 -0.008922 0.000000
vt 0.376000 -0.008922 0.000000
vt 0.376000 -0.013383 0.000000
vt 0.470000 -0.013383 0.000000
vt 0.470000 -0.017844 0.000000
vt 0.376000 -0.017844 0.000000
vt 0.470000 -0.022304 0.000000
vt 0.376000 -0.022304 0.000000
vt 0.470000 -0.008922 0.000000
vt 0.376000 -0.004461 0.000000
vt 0.470000 0.000000 0.000000
vt 0.470000 -0.004461 0.000000
vt 0.000000 -0.022304 0.000000
vt 0.094000 -0.026765 0.000000
vt 0.000000 -0.031226 0.000000
vt 0.000000 -0.026765 0.000000
vt 0.282000 -0.022304 0.000000
vt 0.282000 -0.017844 0.000000
vt 0.282000 -0.013383 0.000000
vt 0.188000 -0.017844 0.000000
vt 0.188000 -0.013383 0.000000
vt 0.188000 -0.008922 0.000000
vt -0.781459 -0.098636 0.000000
vt -0.806552 -0.201676 0.000000
vt -0.765000 -0.100000 0.000000
vt -0.768420 -0.222664 0.000000
vt -0.748541 -0.098636 0.000000
vt -0.732530 -0.094582 0.000000
vt -0.731570 -0.245828 0.000000
vt -0.717405 -0.087947 0.000000
vt -0.696126 -0.271092 0.000000
vt -0.703579 -0.078914 0.000000
vt -0.423075 -0.153504 0.000000
vt -0.691428 -0.067728 0.000000
vt -0.681283 -0.054695 0.000000
vt -0.673423 -0.040170 0.000000
vt -0.668060 -0.024549 0.000000
vt -0.665342 -0.008258 0.000000
vt -0.423075 0.150403 0.000000
vt -0.665342 0.008258 0.000000
vt -0.668060 0.024549 0.000000
vt -0.673423 0.040170 0.000000
vt -0.681283 0.054695 0.000000
vt -0.691428 0.067728 0.000000
vt -0.703579 0.078914 0.000000
vt -0.696126 0.271092 0.000000
vt -0.717405 0.087947 0.000000
vt -0.731570 0.245828 0.000000
vt -0.732530 0.094582 0.000000
vt -0.768420 0.222664 0.000000
vt -0.748541 0.098636 0.000000
vt -0.765000 0.100000 0.000000
vt -0.806552 0.201676 0.000000
vt -0.781459 0.098636 0.000000
vt -0.845837 0.182935 0.000000
vt -0.797470 0.094582 0.000000
vt -0.866375 0.172404 0.000000
vt -0.812595 0.087947 0.000000
vt -0.885564 0.159576 0.000000
vt -0.826421 0.078914 0.000000
vt -0.903146 0.144622 0.000000
vt -0.918889 0.127743 0.000000
vt -0.845837 -0.182935 0.000000
vt -0.797470 -0.094582 0.000000
vt -0.866375 -0.172404 0.000000
vt -0.812595 -0.087947 0.000000
vt -0.885564 -0.159576 0.000000
vt -0.826421 -0.078914 0.000000
vt -0.903146 -0.144622 0.000000
vt -0.918889 -0.127743 0.000000
vt -0.838572 -0.067728 0.000000
vt -0.932582 -0.109162 0.000000
vt -0.848717 -0.054695 0.000000
vt -0.944043 -0.089127 0.000000
vt -0.856577 -0.040170 0.000000
vt -0.953119 -0.067905 0.000000
vt -0.959690 -0.045779 0.000000
vt -0.861940 -0.024549 0.000000
vt -0.963668 -0.023043 0.000000
vt -0.864658 -0.008258 0.000000
vt -0.965000 0.000000 0.000000
vt -0.864658 0.008258 0.000000
vt -0.963668 0.023043 0.000000
vt -0.861940 0.024549 0.000000
vt -0.959690 0.045779 0.000000
vt -0.856577 0.040170 0.000000
vt -0.953119 0.067905 0.000000
vt -0.944043 0.089127 0.000000
vt -0.848717 0.054695 0.000000
vt -0.932582 0.109162 0.000000
vt -0.838572 0.067728 0.000000
vt 0.485000 0.700000 0.000000
vt 0.539420 0.535678 0.000000
vt 0.635000 0.550000 0.000000
vt 0.543599 0.534145 0.000000
vt 0.547307 0.531684 0.000000
vt -0.335000 0.700000 0.000000
vt 0.027709 0.616615 0.000000
vt 0.027709 0.536198 0.000000
vt 0.535000 0.536198 0.000000
vt -0.322198 0.616615 0.000000
vt -0.458223 0.576777 0.000000
vt -0.476335 0.537198 0.000000
vt -0.496713 0.498736 0.000000
vt -0.322198 0.150403 0.000000
vt -0.519287 0.461522 0.000000
vt -0.543982 0.425679 0.000000
vt -0.570715 0.391330 0.000000
vt -0.599395 0.358589 0.000000
vt -0.629927 0.327567 0.000000
vt -0.662206 0.298368 0.000000
vt -0.662206 -0.298368 0.000000
vt -0.629927 -0.327567 0.000000
vt -0.599395 -0.358589 0.000000
vt -0.570715 -0.391330 0.000000
vt -0.543982 -0.425679 0.000000
vt -0.322198 -0.153504 0.000000
vt -0.519287 -0.461522 0.000000
vt -0.496713 -0.498736 0.000000
vt -0.322198 -0.621765 0.000000
vt -0.476335 -0.537198 0.000000
vt -0.458223 -0.576777 0.000000
vt -0.335000 -0.700000 0.000000
vt 0.027709 -0.621765 0.000000
vt 0.485000 -0.700000 0.000000
vt 0.027709 -0.544575 0.000000
vt 0.535000 -0.544575 0.000000
vt 0.540019 -0.543489 0.000000
vt 0.635000 -0.550000 0.000000
vt 0.544620 -0.541210 0.000000
vt 0.548525 -0.537875 0.000000
vt 0.551496 -0.533687 0.000000
vt 0.553355 -0.528901 0.000000
vt 0.553987 -0.523805 0.000000
vt 0.553987 0.515837 0.000000
vt 0.553776 0.520283 0.000000
vt 0.552539 0.524558 0.000000
vt 0.550342 0.528429 0.000000
vt -1.161191 0.479129 0.000000
vt -1.238380 0.479129 0.000000
vt -1.161191 0.009129 0.000000
vt -1.238380 0.009129 0.000000
vt 0.000000 0.092102 0.000000
vt 0.081013 0.092102 0.000000
vt 0.000000 0.125954 0.000000
vt 0.081013 0.125954 0.000000
vt 0.000000 0.159807 0.000000
vt 0.081013 0.159807 0.000000
vt 0.000000 0.193659 0.000000
vt 0.081013 0.193659 0.000000
vt 0.000000 0.227511 0.000000
vt 0.081013 0.227511 0.000000
vt 0.000000 0.261363 0.000000
vt 0.081013 0.261363 0.000000
vt 0.000000 0.295215 0.000000
vt 0.081013 0.295215 0.000000
vt 0.000000 0.329067 0.000000
vt 0.081013 0.329067 0.000000
vt 0.000000 0.362919 0.000000
vt 0.081013 0.362919 0.000000
vt 0.000000 0.396771 0.000000
vt 0.081013 0.396771 0.000000
vt 0.000000 0.430624 0.000000
vt 0.081013 0.430624 0.000000
vt 0.000000 0.464476 0.000000
vt 0.081013 0.464476 0.000000
vt 0.000000 0.498328 0.000000
vt 0.081013 0.498328 0.000000
vt 0.000000 0.532180 0.000000
vt 0.081013 0.532180 0.000000
vt 0.000000 0.566032 0.000000
vt 0.081013 0.566032 0.000000
vt 0.000000 0.599884 0.000000
vt 0.081013 0.599884 0.000000
vt 0.000000 0.633736 0.000000
vt 0.081013 0.633736 0.000000
vt 0.000000 0.667588 0.000000
vt 0.081013 0.667588 0.000000
vt -0.000000 0.701441 0.000000
vt 0.081013 0.701441 0.000000
vt -0.000000 0.735293 0.000000
vt 0.081013 0.735293 0.000000
vt 0.000000 0.769145 0.000000
vt 0.081013 0.769145 0.000000
vt -0.000000 0.802997 0.000000
vt 0.081013 0.802997 0.000000
vt -0.000000 0.836849 0.000000
vt 0.081013 0.836849 0.000000
vt -0.000000 0.870701 0.000000
vt 0.081013 0.870701 0.000000
vt -0.000000 0.904553 0.000000
vt 0.081013 0.904553 0.000000
vt -0.000000 0.938405 0.000000
vt 0.081013 0.938405 0.000000
vt -0.000000 0.972258 0.000000
vt 0.081013 0.972258 0.000000
vt -0.000000 1.006110 0.000000
vt 0.081013 1.006110 0.000000
vt -0.000000 1.039962 0.000000
vt 0.081013 1.039962 0.000000
vt 0.000000 1.073814 0.000000
vt 0.081013 1.073814 0.000000
vt -0.000000 1.107666 0.000000
vt 0.081013 1.107666 0.000000
vt 0.000000 1.141518 0.000000
vt 0.081013 1.141518 0.000000
vt -0.000000 1.175370 0.000000
vt 0.081013 1.175370 0.000000
vt -0.000000 1.209222 0.000000
vt 0.081013 1.209222 0.000000
vt -0.000000 1.243075 0.000000
vt 0.081013 1.243075 0.000000
vt -0.468261 0.009129 0.000000
vt -0.000000 0.009129 0.000000
vt -0.468261 0.479129 0.000000
vt -0.000000 0.479129 0.000000
vt -0.349906 0.009129 0.000000
vt 0.000000 0.009129 0.000000
vt -0.349906 0.479129 0.000000
vt 0.000000 0.479129 0.000000
vt -0.080417 0.009129 0.000000
vt -0.000000 0.009129 0.000000
vt -0.080417 0.479129 0.000000
vt -0.000000 0.479129 0.000000
vt -0.349906 0.009129 0.000000
vt -0.000000 0.009129 0.000000
vt -0.349906 0.479129 0.000000
vt 0.000000 0.479129 0.000000
vt -1.238380 0.009129 0.000000
vt -0.772168 0.009129 0.000000
vt -1.238380 0.479129 0.000000
vt -0.772168 0.479129 0.000000
vt -0.001872 0.470000 0.000000
vt -0.102749 0.470000 0.000000
vt -0.001872 0.000000 0.000000
vt -0.102749 0.000000 0.000000
vt -0.100877 0.000000 0.000000
vt -0.000000 0.000000 0.000000
vt -0.100877 0.470000 0.000000
vt -0.000000 0.470000 0.000000
vt -0.000000 0.470000 0.000000
vt -0.303907 0.470000 0.000000
vt -0.000000 0.000000 0.000000
vt -0.303907 0.000000 0.000000
vt -0.037868 0.235000 0.000000
vt -0.212132 0.235000 0.000000
vt -0.037868 -0.235000 0.000000
vt -0.212132 -0.235000 0.000000
vt -0.235000 -0.485000 0.000000
vt 0.235000 -0.485000 0.000000
vt -0.235000 0.335000 0.000000
vt 0.235000 0.335000 0.000000
vt 0.037868 -0.235000 0.000000
vt 0.212132 -0.235000 0.000000
vt 0.037868 0.235000 0.000000
vt 0.212132 0.235000 0.000000
vt -0.235000 -0.485000 0.000000
vt 0.235000 -0.485000 0.000000
vt -0.235000 0.335000 0.000000
vt 0.235000 0.335000 0.000000
vn -0.038956 0.000000 -0.092100
vn -0.038956 0.000000 -0.092100
vn -0.044233 0.000000 -0.089685
vn -0.044233 0.000000 -0.089685
vn -0.049361 0.000000 -0.086968
vn -0.049361 0.000000 -0.086968
vn -0.054323 0.000000 -0.083958
vn -0.054323 0.000000 -0.083958
vn -0.059102 0.000000 -0.080666
vn -0.059102 0.000000 -0.080666
vn -0.063682 0.000000 -0.077101
vn -0.063682 0.000000 -0.077101
vn -0.068047 0.000000 -0.073277
vn -0.068047 0.000000 -0.073277
vn -0.072184 0.000000 -0.069206
vn -0.072184 0.000000 -0.069206
vn -0.076077 0.000000 -0.064903
vn -0.076077 0.000000 -0.064903
vn -0.079714 0.000000 -0.060380
vn -0.079714 0.000000 -0.060380
vn -0.083082 0.000000 -0.055654
vn -0.083082 0.000000 -0.055654
vn -0.086171 0.000000 -0.050741
vn -0.086171 0.000000 -0.050741
vn -0.088969 0.000000 -0.045656
vn -0.088969 0.000000 -0.045656
vn -0.091468 0.000000 -0.040418
vn -0.091468 0.000000 -0.040418
vn 0.038956 0.000000 -0.092100
vn 0.038956 0.000000 -0.092100
vn 0.044233 0.000000 -0.089685
vn 0.044233 0.000000 -0.089685
vn 0.049361 0.000000 -0.086968
vn 0.049361 0.000000 -0.086968
vn 0.054323 0.000000 -0.083958
vn 0.054323 0.000000 -0.083958
vn 0.059102 0.000000 -0.080666
vn 0.059102 0.000000 -0.080666
vn 0.063682 0.000000 -0.077101
vn 0.063682 0.000000 -0.077101
vn 0.068047 0.000000 -0.073277
vn 0.068047 0.000000 -0.073277
vn 0.072184 0.000000 -0.069206
vn 0.072184 0.000000 -0.069206
vn 0.076077 0.000000 -0.064903
vn 0.076077 0.000000 -0.064903
vn 0.079714 0.000000 -0.060380
vn 0.079714 0.000000 -0.060380
vn 0.083082 0.000000 -0.055654
vn 0.083082 0.000000 -0.055654
vn 0.086171 0.000000 -0.050741
vn 0.086171 0.000000 -0.050741
vn 0.088969 0.000000 -0.045656
vn 0.088969 0.000000 -0.045656
vn 0.091468 0.000000 -0.040418
vn 0.091468 0.000000 -0.040418
vn -0.098636 0.000000 -0.016459
vn -0.098636 0.000000 -0.016459
vn -0.100000 0.000000 -0.000000
vn -0.100000 0.000000 -0.000000
vn -0.098636 0.000000 0.016459
vn -0.098636 0.000000 0.016459
vn -0.094582 0.000000 0.032470
vn -0.094582 0.000000 0.032470
vn -0.087947 0.000000 0.047595
vn -0.087947 0.000000 0.047595
vn -0.078914 0.000000 0.061421
vn -0.078914 0.000000 0.061421
vn -0.067728 0.000000 0.073572
vn -0.067728 0.000000 0.073572
vn -0.054695 0.000000 0.083717
vn -0.054695 0.000000 0.083717
vn -0.040170 0.000000 0.091577
vn -0.040170 0.000000 0.091577
vn -0.024549 0.000000 0.096940
vn -0.024549 0.000000 0.096940
vn -0.008258 0.000000 0.099658
vn -0.008258 0.000000 0.099658
vn 0.008258 0.000000 0.099658
vn 0.008258 0.000000 0.099658
vn 0.024549 0.000000 0.096940
vn 0.024549 0.000000 0.096940
vn 0.040170 0.000000 0.091577
vn 0.040170 0.000000 0.091577
vn 0.054695 0.000000 0.083717
vn 0.054695 0.000000 0.083717
vn 0.067728 0.000000 0.073572
vn 0.067728 0.000000 0.073572
vn 0.078914 0.000000 0.061421
vn 0.078914 0.000000 0.061421
vn 0.087947 0.000000 0.047595
vn 0.087947 0.000000 0.047595
vn 0.094582 0.000000 0.032470
vn 0.094582 0.000000 0.032470
vn 0.098636 0.000000 0.016459
vn 0.098636 0.000000 0.016459
vn 0.100000 0.000000 0.000000
vn 0.100000 0.000000 0.000000
vn 0.098636 0.000000 -0.016459
vn 0.098636 0.000000 -0.016459
vn 0.094582 0.000000 -0.032470
vn 0.094582 0.000000 -0.032470
vn 0.087947 0.000000 -0.047595
vn 0.087947 0.000000 -0.047595
vn 0.078914 0.000000 -0.061421
vn 0.078914 0.000000 -0.061421
vn 0.067728 0.000000 -0.073572
vn 0.067728 0.000000 -0.073572
vn 0.054695 0.000000 -0.083717
vn 0.054695 0.000000 -0.083717
vn 0.040170 0.000000 -0.091577
vn 0.040170 0.000000 -0.091577
vn 0.024549 0.000000 -0.096940
vn 0.024549 0.000000 -0.096940
vn 0.008258 0.000000 -0.099658
vn 0.008258 0.000000 -0.099658
vn -0.008258 0.000000 -0.099658
vn -0.008258 0.000000 -0.099658
vn -0.024549 0.000000 -0.096940
vn -0.024549 0.000000 -0.096940
vn -0.040170 0.000000 -0.091577
vn -0.040170 0.000000 -0.091577
vn -0.054695 0.000000 -0.083717
vn -0.054695 0.000000 -0.083717
vn -0.067728 0.000000 -0.073572
vn -0.067728 0.000000 -0.073572
vn -0.078914 0.000000 -0.061421
vn -0.078914 0.000000 -0.061421
vn -0.087947 0.000000 -0.047595
vn -0.087947 0.000000 -0.047595
vn -0.094582 0.000000 -0.032470
vn -0.094582 0.000000 -0.032470
vn -0.098636 0.000000 0.016459
vn -0.100000 0.000000 0.000000
vn -0.098636 0.000000 -0.016459
vn -0.094582 0.000000 -0.032470
vn -0.087947 0.000000 -0.047595
vn -0.078914 0.000000 -0.061421
vn -0.067728 0.000000 -0.073572
vn -0.054695 0.000000 -0.083717
vn -0.040170 0.000000 -0.091577
vn -0.024549 0.000000 -0.096940
vn -0.008258 0.000000 -0.099658
vn 0.008258 0.000000 -0.099658
vn 0.024549 0.000000 -0.096940
vn 0.040170 0.000000 -0.091577
vn 0.054695 0.000000 -0.083717
vn 0.067728 0.000000 -0.073572
vn 0.078914 0.000000 -0.061421
vn 0.087947 0.000000 -0.047595
vn 0.094582 0.000000 -0.032470
vn 0.098636 0.000000 -0.016459
vn 0.100000 0.000000 0.000000
vn 0.098636 0.000000 0.016459
vn 0.094582 0.000000 0.032470
vn 0.087947 0.000000 0.047595
vn 0.078914 0.000000 0.061421
vn 0.067728 0.000000 0.073572
vn 0.054695 0.000000 0.083717
vn 0.040170 0.000000 0.091577
vn 0.024549 0.000000 0.096940
vn 0.008258 0.000000 0.099658
vn -0.008258 0.000000 0.099658
vn -0.024549 0.000000 0.096940
vn -0.040170 0.000000 0.091577
vn -0.054695 0.000000 0.083717
vn -0.067728 0.000000 0.073572
vn -0.078914 0.000000 0.061421
vn -0.087947 0.000000 0.047595
vn -0.094582 0.000000 0.032470
vn -0.086202 0.000000 -0.050688
vn -0.086202 0.000000 -0.050688
vn -0.079788 0.000000 -0.060282
vn -0.079788 0.000000 -0.060282
vn -0.072311 0.000000 -0.069073
vn -0.072311 0.000000 -0.069073
vn -0.063871 0.000000 -0.076944
vn -0.063871 0.000000 -0.076944
vn -0.054581 0.000000 -0.083791
vn -0.054581 0.000000 -0.083791
vn -0.044564 0.000000 -0.089521
vn -0.044564 0.000000 -0.089521
vn -0.033953 0.000000 -0.094060
vn -0.033953 0.000000 -0.094060
vn -0.022889 0.000000 -0.097345
vn -0.022889 0.000000 -0.097345
vn -0.011521 0.000000 -0.099334
vn -0.011521 0.000000 -0.099334
vn -0.000000 0.000000 -0.100000
vn -0.000000 0.000000 -0.100000
vn 0.011521 0.000000 -0.099334
vn 0.011521 0.000000 -0.099334
vn 0.022889 0.000000 -0.097345
vn 0.022889 0.000000 -0.097345
vn 0.033953 0.000000 -0.094060
vn 0.033953 0.000000 -0.094060
vn 0.044564 0.000000 -0.089521
vn 0.044564 0.000000 -0.089521
vn 0.054581 0.000000 -0.083791
vn 0.054581 0.000000 -0.083791
vn 0.063871 0.000000 -0.076944
vn 0.063871 0.000000 -0.076944
vn 0.072311 0.000000 -0.069073
vn 0.072311 0.000000 -0.069073
vn 0.079788 0.000000 -0.060282
vn 0.079788 0.000000 -0.060282
vn 0.086202 0.000000 -0.050688
vn 0.086202 0.000000 -0.050688
vn -0.070711 0.000000 0.070711
vn -0.070711 0.000000 0.070711
vn -0.070711 0.000000 0.070711
vn -0.070711 0.000000 0.070711
vn 0.000000 0.100000 0.000000
vn 0.000000 0.100000 0.000000
vn 0.000000 0.100000 0.000000
vn 0.000000 0.100000 0.000000
vn 0.000000 0.100000 0.000000
vn 0.000000 0.100000 0.000000
vn 0.000000 0.100000 0.000000
vn 0.000000 0.100000 0.000000
vn 0.000000 0.100000 0.000000
vn 0.000000 0.100000 0.000000
vn 0.000000 0.100000 0.000000
vn 0.000000 0.100000 0.000000
vn 0.000000 0.100000 0.000000
vn 0.000000 0.100000 0.000000
vn 0.000000 0.100000 0.000000
vn 0.000000 0.100000 0.000000
vn 0.000000 0.100000 0.000000
vn 0.000000 0.100000 0.000000
vn 0.000000 0.100000 0.000000
vn 0.000000 0.100000 0.000000
vn 0.000000 0.100000 0.000000
vn 0.000000 0.100000 0.000000
vn 0.000000 0.100000 0.000000
vn 0.000000 0.100000 0.000000
vn 0.000000 0.100000 0.000000
vn 0.000000 0.100000 0.000000
vn 0.000000 0.100000 0.000000
vn 0.000000 0.100000 0.000000
vn 0.000000 0.100000 0.000000
vn 0.000000 0.100000 0.000000
vn 0.000000 0.100000 0.000000
vn 0.000000 0.100000 0.000000
vn 0.000000 0.100000 0.000000
vn 0.000000 0.100000 0.000000
vn 0.000000 0.100000 0.000000
vn 0.000000 0.100000 0.000000
vn 0.000000 0.100000 0.000000
vn 0.000000 0.100000 0.000000
vn 0.000000 0.100000 0.000000
vn 0.000000 0.100000 0.000000
vn 0.000000 0.100000 0.000000
vn 0.000000 0.100000 0.000000
vn 0.000000 0.100000 0.000000
vn 0.000000 0.100000 0.000000
vn 0.000000 0.100000 0.000000
vn 0.000000 0.100000 0.000000
vn 0.000000 0.100000 0.000000
vn 0.000000 0.100000 0.000000
vn 0.000000 0.100000 0.000000
vn 0.000000 0.100000 0.000000
vn 0.000000 0.100000 0.000000
vn 0.000000 0.100000 0.000000
vn 0.000000 0.100000 0.000000
vn 0.000000 0.100000 0.000000
vn 0.000000 0.100000 0.000000
vn 0.000000 0.100000 0.000000
vn 0.000000 0.100000 0.000000
vn 0.000000 0.100000 0.000000
vn 0.000000 0.100000 0.000000
vn 0.000000 0.100000 0.000000
vn 0.000000 0.100000 0.000000
vn 0.000000 0.100000 0.000000
vn 0.000000 0.100000 0.000000
vn 0.000000 0.100000 0.000000
vn 0.000000 0.100000 0.000000
vn 0.000000 0.100000 0.000000
vn 0.000000 0.100000 0.000000
vn 0.000000 0.100000 0.000000
vn 0.000000 0.100000 0.000000
vn 0.000000 0.100000 0.000000
vn 0.000000 0.100000 0.000000
vn 0.000000 0.100000 0.000000
vn 0.000000 0.100000 0.000000
vn 0.000000 0.100000 0.000000
vn 0.000000 0.100000 0.000000
vn 0.000000 0.100000 0.000000
vn 0.000000 0.100000 0.000000
vn 0.000000 0.100000 0.000000
vn 0.000000 0.100000 0.000000
vn 0.000000 0.100000 0.000000
vn 0.000000 0.100000 0.000000
vn 0.000000 0.100000 0.000000
vn 0.000000 0.100000 0.000000
vn 0.000000 0.100000 0.000000
vn 0.000000 0.100000 0.000000
vn 0.000000 0.100000 0.000000
vn 0.000000 0.100000 0.000000
vn 0.000000 0.100000 0.000000
vn 0.000000 0.100000 0.000000
vn 0.000000 0.100000 0.000000
vn 0.000000 0.100000 0.000000
vn 0.000000 0.100000 0.000000
vn 0.000000 0.100000 0.000000
vn 0.000000 0.100000 0.000000
vn 0.000000 0.100000 0.000000
vn 0.000000 0.100000 0.000000
vn 0.000000 0.100000 0.000000
vn 0.000000 0.100000 0.000000
vn 0.000000 0.100000 0.000000
vn 0.000000 0.100000 0.000000
vn 0.000000 0.100000 0.000000
vn 0.000000 0.100000 0.000000
vn 0.000000 0.100000 0.000000
vn 0.000000 0.100000 0.000000
vn 0.000000 0.100000 0.000000
vn 0.000000 0.100000 0.000000
vn 0.000000 0.100000 0.000000
vn 0.000000 0.100000 0.000000
vn 0.000000 0.100000 0.000000
vn 0.000000 0.100000 0.000000
vn 0.000000 0.100000 0.000000
vn 0.000000 0.100000 0.000000
vn 0.000000 0.100000 0.000000
vn 0.000000 0.100000 0.000000
vn 0.000000 0.100000 0.000000
vn 0.000000 0.100000 0.000000
vn 0.000000 0.100000 0.000000
vn 0.000000 0.100000 0.000000
vn 0.000000 0.100000 0.000000
vn 0.000000 0.100000 0.000000
vn 0.000000 0.000000 0.100000
vn 0.000000 0.000000 0.100000
vn 0.000000 0.000000 0.100000
vn 0.000000 0.000000 0.100000
vn 0.000000 0.000000 0.100000
vn 0.000000 0.000000 0.100000
vn 0.000000 0.000000 0.100000
vn 0.000000 0.000000 0.100000
vn 0.000000 0.000000 0.100000
vn 0.000000 0.000000 0.100000
vn 0.000000 0.000000 0.100000
vn 0.000000 0.000000 0.100000
vn 0.000000 0.000000 0.100000
vn 0.000000 0.000000 0.100000
vn 0.000000 0.000000 0.100000
vn 0.000000 0.000000 0.100000
vn 0.000000 0.000000 0.100000
vn 0.000000 0.000000 0.100000
vn 0.000000 0.000000 0.100000
vn 0.000000 0.000000 0.100000
vn 0.000000 0.000000 0.100000
vn 0.000000 0.000000 0.100000
vn 0.000000 0.000000 0.100000
vn 0.000000 0.000000 0.100000
vn 0.000000 0.000000 0.100000
vn 0.000000 0.000000 0.100000
vn 0.000000 0.000000 0.100000
vn 0.000000 0.000000 0.100000
vn 0.000000 0.000000 0.100000
vn 0.000000 0.000000 0.100000
vn 0.000000 0.000000 0.100000
vn 0.000000 0.000000 0.100000
vn 0.000000 0.000000 0.100000
vn 0.000000 0.000000 0.100000
vn 0.000000 0.000000 0.100000
vn 0.000000 0.000000 0.100000
vn 0.000000 0.000000 0.100000
vn 0.000000 0.000000 0.100000
vn 0.000000 0.000000 0.100000
vn 0.070711 0.000000 0.070711
vn 0.070711 0.000000 0.070711
vn 0.070711 0.000000 0.070711
vn 0.070711 0.000000 0.070711
vn -0.094391 0.000000 -0.033021
vn -0.094391 0.000000 -0.033021
vn -0.099598 0.000000 -0.008955
vn -0.094391 0.000000 -0.033021
vn -0.094391 0.000000 -0.033021
vn -0.083461 0.000000 -0.055085
vn -0.083461 0.000000 -0.055085
vn -0.067470 0.000000 -0.073809
vn -0.067470 0.000000 -0.073809
vn -0.047389 0.000000 -0.088058
vn -0.047389 0.000000 -0.088058
vn -0.024435 0.000000 -0.096969
vn -0.024435 0.000000 -0.096969
vn 0.000000 0.000000 -0.100000
vn -0.024435 0.000000 -0.096969
vn -0.024435 0.000000 -0.096969
vn -0.047389 0.000000 -0.088058
vn -0.047389 0.000000 -0.088058
vn -0.067470 0.000000 -0.073809
vn -0.067470 0.000000 -0.073809
vn -0.083461 0.000000 -0.055085
vn -0.083461 0.000000 -0.055085
vn -0.047389 0.000000 -0.088058
vn -0.024435 0.000000 -0.096969
vn 0.000000 0.000000 -0.100000
vn -0.024435 0.000000 -0.096969
vn -0.083461 0.000000 -0.055085
vn -0.094391 0.000000 -0.033021
vn -0.099598 0.000000 -0.008955
vn -0.094391 0.000000 -0.033021
vn -0.083461 0.000000 -0.055085
vn -0.067470 0.000000 -0.073809
vn -0.067470 0.000000 -0.073809
vn -0.047389 0.000000 -0.088058
vn -0.100000 0.000000 0.000000
vn -0.100000 0.000000 0.000000
vn -0.100000 0.000000 0.000000
vn -0.100000 0.000000 0.000000
vn 0.000000 0.000000 -0.100000
vn 0.000000 0.000000 -0.100000
vn 0.000000 0.000000 -0.100000
vn 0.000000 0.000000 -0.100000
vn 0.000000 0.000000 -0.100000
vn 0.000000 0.000000 -0.100000
vn 0.000000 0.000000 -0.100000
vn 0.000000 0.000000 -0.100000
vn 0.000000 0.000000 -0.100000
vn 0.000000 0.000000 -0.100000
vn 0.000000 0.000000 -0.100000
vn 0.000000 0.000000 -0.100000
vn 0.000000 0.000000 -0.100000
vn 0.000000 0.000000 -0.100000
vn 0.000000 0.000000 -0.100000
vn 0.000000 0.000000 -0.100000
vn 0.000000 0.000000 -0.100000
vn 0.000000 0.000000 -0.100000
vn 0.000000 0.000000 -0.100000
vn 0.000000 0.000000 -0.100000
vn 0.000000 0.000000 -0.100000
vn 0.000000 0.000000 -0.100000
vn 0.000000 0.000000 -0.100000
vn 0.000000 0.000000 -0.100000
vn 0.000000 0.000000 -0.100000
vn 0.000000 0.000000 -0.100000
vn 0.000000 0.000000 -0.100000
vn 0.000000 0.000000 -0.100000
vn 0.000000 0.000000 -0.100000
vn 0.000000 0.000000 -0.100000
vn 0.000000 0.000000 -0.100000
vn 0.000000 0.000000 -0.100000
vn 0.000000 0.000000 -0.100000
vn 0.000000 0.000000 -0.100000
vn 0.000000 0.000000 -0.100000
vn 0.000000 0.000000 -0.100000
vn 0.000000 0.000000 -0.100000
vn 0.100000 0.000000 0.000000
vn 0.100000 0.000000 0.000000
vn 0.100000 0.000000 0.000000
vn 0.100000 0.000000 0.000000
vn 0.016381 0.000000 -0.098649
vn 0.016381 0.000000 -0.098649
vn -0.006977 0.000000 -0.099756
vn 0.016381 0.000000 -0.098649
vn 0.016381 0.000000 -0.098649
vn 0.038843 0.000000 -0.092148
vn 0.038843 0.000000 -0.092148
vn 0.059181 0.000000 -0.080608
vn 0.059181 0.000000 -0.080608
vn 0.076283 0.000000 -0.064660
vn 0.076283 0.000000 -0.064660
vn 0.089213 0.000000 -0.045177
vn 0.089213 0.000000 -0.045177
vn 0.097266 0.000000 -0.023223
vn 0.097266 0.000000 -0.023223
vn 0.097266 0.000000 -0.023223
vn 0.097266 0.000000 -0.023223
vn 0.089213 0.000000 -0.045177
vn 0.089213 0.000000 -0.045177
vn 0.076283 0.000000 -0.064660
vn 0.076283 0.000000 -0.064660
vn 0.059181 0.000000 -0.080608
vn 0.059181 0.000000 -0.080608
vn 0.038843 0.000000 -0.092148
vn 0.038843 0.000000 -0.092148
vn 0.089213 0.000000 -0.045177
vn 0.097266 0.000000 -0.023223
vn 0.097266 0.000000 -0.023223
vn 0.038843 0.000000 -0.092148
vn 0.016381 0.000000 -0.098649
vn -0.006977 0.000000 -0.099756
vn 0.016381 0.000000 -0.098649
vn 0.038843 0.000000 -0.092148
vn 0.059181 0.000000 -0.080608
vn 0.076283 0.000000 -0.064660
vn 0.059181 0.000000 -0.080608
vn 0.076283 0.000000 -0.064660
vn 0.089213 0.000000 -0.045177
vn 0.000000 -0.100000 0.000000
vn 0.000000 -0.100000 0.000000
vn 0.000000 -0.100000 0.000000
vn 0.000000 -0.100000 0.000000
vn 0.000000 -0.100000 0.000000
vn 0.000000 -0.100000 0.000000
vn 0.000000 -0.100000 0.000000
vn 0.000000 -0.100000 0.000000
vn 0.000000 -0.100000 0.000000
vn 0.000000 -0.100000 0.000000
vn 0.000000 -0.100000 0.000000
vn 0.000000 -0.100000 0.000000
vn 0.000000 -0.100000 0.000000
vn 0.000000 -0.100000 0.000000
vn 0.000000 -0.100000 0.000000
vn 0.000000 -0.100000 0.000000
vn 0.000000 -0.100000 0.000000
vn 0.000000 -0.100000 0.000000
vn 0.000000 -0.100000 0.000000
vn 0.000000 -0.100000 0.000000
vn 0.000000 -0.100000 0.000000
vn 0.000000 -0.100000 0.000000
vn 0.000000 -0.100000 0.000000
vn 0.000000 -0.100000 0.000000
vn 0.000000 -0.100000 0.000000
vn 0.000000 -0.100000 0.000000
vn 0.000000 -0.100000 0.000000
vn 0.000000 -0.100000 0.000000
vn 0.000000 -0.100000 0.000000
vn 0.000000 -0.100000 0.000000
vn 0.000000 -0.100000 0.000000
vn 0.000000 -0.100000 0.000000
vn 0.000000 -0.100000 0.000000
vn 0.000000 -0.100000 0.000000
vn 0.000000 -0.100000 0.000000
vn 0.000000 -0.100000 0.000000
vn 0.000000 -0.100000 0.000000
vn 0.000000 -0.100000 0.000000
vn 0.000000 -0.100000 0.000000
vn 0.000000 -0.100000 0.000000
vn 0.000000 -0.100000 0.000000
vn 0.000000 -0.100000 0.000000
vn 0.000000 -0.100000 0.000000
vn 0.000000 -0.100000 0.000000
vn 0.000000 -0.100000 0.000000
vn 0.000000 -0.100000 0.000000
vn 0.000000 -0.100000 0.000000
vn 0.000000 -0.100000 0.000000
vn 0.000000 -0.100000 0.000000
vn 0.000000 -0.100000 0.000000
vn 0.000000 -0.100000 0.000000
vn 0.000000 -0.100000 0.000000
vn 0.000000 -0.100000 0.000000
vn 0.000000 -0.100000 0.000000
vn 0.000000 -0.100000 0.000000
vn 0.000000 -0.100000 0.000000
vn 0.000000 -0.100000 0.000000
vn 0.000000 -0.100000 0.000000
vn 0.000000 -0.100000 0.000000
vn 0.000000 -0.100000 0.000000
vn 0.000000 -0.100000 0.000000
vn 0.000000 -0.100000 0.000000
vn 0.000000 -0.100000 0.000000
vn 0.000000 -0.100000 0.000000
vn 0.000000 -0.100000 0.000000
vn 0.000000 -0.100000 0.000000
vn 0.000000 -0.100000 0.000000
vn 0.000000 -0.100000 0.000000
vn 0.000000 -0.100000 0.000000
vn 0.000000 -0.100000 0.000000
vn 0.000000 -0.100000 0.000000
vn 0.000000 -0.100000 0.000000
vn 0.000000 -0.100000 0.000000
vn 0.000000 -0.100000 0.000000
vn 0.000000 -0.100000 0.000000
vn 0.000000 -0.100000 0.000000
vn 0.000000 -0.100000 0.000000
vn 0.000000 -0.100000 0.000000
vn 0.000000 -0.100000 0.000000
vn 0.000000 -0.100000 0.000000
vn 0.000000 -0.100000 0.000000
vn 0.000000 -0.100000 0.000000
vn 0.000000 -0.100000 0.000000
vn 0.000000 -0.100000 0.000000
vn 0.000000 -0.100000 0.000000
vn 0.000000 -0.100000 0.000000
vn 0.000000 -0.100000 0.000000
vn 0.000000 -0.100000 0.000000
vn 0.000000 -0.100000 0.000000
vn 0.000000 -0.100000 0.000000
vn 0.000000 -0.100000 0.000000
vn 0.000000 -0.100000 0.000000
vn 0.000000 -0.100000 0.000000
vn 0.000000 -0.100000 0.000000
vn 0.000000 -0.100000 0.000000
vn 0.000000 -0.100000 0.000000
vn 0.000000 -0.100000 0.000000
vn 0.000000 -0.100000 0.000000
vn 0.000000 -0.100000 0.000000
vn 0.000000 -0.100000 0.000000
vn 0.000000 -0.100000 0.000000
vn 0.000000 -0.100000 0.000000
vn 0.000000 -0.100000 0.000000
vn 0.000000 -0.100000 0.000000
vn 0.000000 -0.100000 0.000000
vn 0.000000 -0.100000 0.000000
vn 0.000000 -0.100000 0.000000
vn 0.000000 -0.100000 0.000000
vn 0.000000 -0.100000 0.000000
vn 0.000000 -0.100000 0.000000
vn 0.000000 -0.100000 0.000000
vn 0.000000 -0.100000 0.000000
vn 0.000000 -0.100000 0.000000
vn 0.000000 -0.100000 0.000000
vn 0.000000 -0.100000 0.000000
vn 0.000000 -0.100000 0.000000
vn -0.000000 0.000000 -0.100000
vn -0.000000 0.000000 -0.100000
vn -0.000000 0.000000 -0.100000
vn -0.000000 0.000000 -0.100000
vn -0.097661 0.021502 0.000000
vn -0.097661 0.021502 0.000000
vn -0.095640 0.029204 0.000000
vn -0.095640 0.029204 0.000000
vn -0.093014 0.036722 0.000000
vn -0.093014 0.036722 0.000000
vn -0.089797 0.044006 0.000000
vn -0.089797 0.044006 0.000000
vn -0.086011 0.051012 0.000000
vn -0.086011 0.051012 0.000000
vn -0.081679 0.057694 0.000000
vn -0.081679 0.057694 0.000000
vn -0.076829 0.064010 0.000000
vn -0.076829 0.064010 0.000000
vn -0.071493 0.069920 0.000000
vn -0.071493 0.069920 0.000000
vn -0.065703 0.075387 0.000000
vn -0.065703 0.075387 0.000000
vn -0.059496 0.080375 0.000000
vn -0.059496 0.080375 0.000000
vn -0.052912 0.084855 0.000000
vn -0.052912 0.084855 0.000000
vn -0.045993 0.088796 0.000000
vn -0.045993 0.088796 0.000000
vn -0.038782 0.092174 0.000000
vn -0.038782 0.092174 0.000000
vn -0.031325 0.094967 0.000000
vn -0.031325 0.094967 0.000000
vn -0.023669 0.097159 0.000000
vn -0.023669 0.097159 0.000000
vn -0.015863 0.098734 0.000000
vn -0.015863 0.098734 0.000000
vn -0.007957 0.099683 0.000000
vn -0.007957 0.099683 0.000000
vn -0.000000 0.100000 0.000000
vn -0.000000 0.100000 0.000000
vn 0.007957 0.099683 0.000000
vn 0.007957 0.099683 0.000000
vn 0.015863 0.098734 0.000000
vn 0.015863 0.098734 0.000000
vn 0.023669 0.097159 0.000000
vn 0.023669 0.097159 0.000000
vn 0.031325 0.094967 0.000000
vn 0.031325 0.094967 0.000000
vn 0.038782 0.092174 0.000000
vn 0.038782 0.092174 0.000000
vn 0.045993 0.088796 0.000000
vn 0.045993 0.088796 0.000000
vn 0.052912 0.084855 0.000000
vn 0.052912 0.084855 0.000000
vn 0.059496 0.080375 0.000000
vn 0.059496 0.080375 0.000000
vn 0.065703 0.075387 0.000000
vn 0.065703 0.075387 0.000000
vn 0.071493 0.069920 0.000000
vn 0.071493 0.069920 0.000000
vn 0.076829 0.064010 0.000000
vn 0.076829 0.064010 0.000000
vn 0.081679 0.057694 0.000000
vn 0.081679 0.057694 0.000000
vn 0.086011 0.051012 0.000000
vn 0.086011 0.051012 0.000000
vn 0.089797 0.044006 0.000000
vn 0.089797 0.044006 0.000000
vn 0.093014 0.036722 0.000000
vn 0.093014 0.036722 0.000000
vn 0.095640 0.029204 0.000000
vn 0.095640 0.029204 0.000000
vn 0.097661 0.021502 0.000000
vn 0.097661 0.021502 0.000000
vn -0.000000 -0.000000 0.100000
vn -0.000000 -0.000000 0.100000
vn -0.000000 -0.000000 0.100000
vn -0.000000 -0.000000 0.100000
vn -0.100000 0.000000 0.000000
vn -0.100000 0.000000 0.000000
vn -0.100000 0.000000 0.000000
vn -0.100000 0.000000 0.000000
vn -0.000000 0.000000 -0.100000
vn -0.000000 0.000000 -0.100000
vn -0.000000 0.000000 -0.100000
vn -0.000000 0.000000 -0.100000
vn 0.100000 -0.000000 0.000000
vn 0.100000 -0.000000 0.000000
vn 0.100000 -0.000000 0.000000
vn 0.100000 -0.000000 0.000000
vn -0.000000 -0.000000 0.100000
vn -0.000000 -0.000000 0.100000
vn -0.000000 -0.000000 0.100000
vn -0.000000 -0.000000 0.100000
vn -0.100000 0.000000 -0.000000
vn -0.100000 0.000000 -0.000000
vn -0.100000 0.000000 -0.000000
vn -0.100000 0.000000 -0.000000
vn 0.100000 0.000000 0.000000
vn 0.100000 0.000000 0.000000
vn 0.100000 0.000000 0.000000
vn 0.100000 0.000000 0.000000
vn 0.000000 0.000000 0.100000
vn 0.000000 0.000000 0.100000
vn 0.000000 0.000000 0.100000
vn 0.000000 0.000000 0.100000
vn 0.070711 0.000000 -0.070711
vn 0.070711 0.000000 -0.070711
vn 0.070711 0.000000 -0.070711
vn 0.070711 0.000000 -0.070711
vn 0.100000 0.000000 0.000000
vn 0.100000 0.000000 0.000000
vn 0.100000 0.000000 0.000000
vn 0.100000 0.000000 0.000000
vn -0.070711 0.000000 -0.070711
vn -0.070711 0.000000 -0.070711
vn -0.070711 0.000000 -0.070711
vn -0.070711 0.000000 -0.070711
vn -0.100000 0.000000 0.000000
vn -0.100000 0.000000 0.000000
vn -0.100000 0.000000 0.000000
vn -0.100000 0.000000 0.000000
usemtl Steel_-_Satin
f 28/1/1 1/2/2 27/3/3
f 27/3/3 1/2/2 2/4/4
f 27/3/3 2/4/4 26/5/5
f 26/5/5 2/4/4 3/6/6
f 26/5/5 3/6/6 25/7/7
f 25/7/7 3/6/6 4/8/8
f 25/7/7 4/8/8 24/9/9
f 24/9/9 4/8/8 5/10/10
f 24/9/9 5/10/10 23/11/11
f 23/11/11 5/10/10 6/12/12
f 23/11/11 6/12/12 22/13/13
f 22/13/13 6/12/12 7/14/14
f 22/13/13 7/14/14 21/15/15
f 21/15/15 7/14/14 8/16/16
f 21/15/15 8/16/16 20/17/17
f 20/17/17 8/16/16 9/18/18
f 20/17/17 9/18/18 19/19/19
f 19/19/19 9/18/18 10/20/20
f 19/19/19 10/20/20 18/21/21
f 18/21/21 10/20/20 11/22/22
f 18/21/21 11/22/22 17/23/23
f 17/23/23 11/22/22 12/24/24
f 17/23/23 12/24/24 16/25/25
f 16/25/25 12/24/24 13/26/26
f 16/25/25 13/26/26 15/27/27
f 15/27/27 13/26/26 14/28/28
f 56/29/29 29/30/30 55/31/31
f 55/31/31 29/30/30 30/32/32
f 55/31/31 30/32/32 54/33/33
f 54/33/33 30/32/32 31/34/34
f 54/33/33 31/34/34 53/35/35
f 53/35/35 31/34/34 32/36/36
f 53/35/35 32/36/36 52/37/37
f 52/37/37 32/36/36 33/38/38
f 52/37/37 33/38/38 51/39/39
f 51/39/39 33/38/38 34/40/40
f 51/39/39 34/40/40 50/41/41
f 50/41/41 34/40/40 35/42/42
f 50/41/41 35/42/42 49/43/43
f 49/43/43 35/42/42 36/44/44
f 49/43/43 36/44/44 48/45/45
f 48/45/45 36/44/44 37/46/46
f 48/45/45 37/46/46 47/47/47
f 47/47/47 37/46/46 38/48/48
f 47/47/47 38/48/48 46/49/49
f 46/49/49 38/48/48 39/50/50
f 46/49/49 39/50/50 45/51/51
f 45/51/51 39/50/50 40/52/52
f 45/51/51 40/52/52 44/53/53
f 44/53/53 40/52/52 41/54/54
f 44/53/53 41/54/54 43/55/55
f 43/55/55 41/54/54 42/56/56
f 58/57/57 134/58/58 57/59/59
f 57/59/59 134/58/58 133/60/60
f 57/61/59 133/62/60 94/63/61
f 94/63/61 133/62/60 170/64/62
f 94/63/61 170/64/62 93/65/63
f 93/65/63 170/64/62 169/66/64
f 93/65/63 169/66/64 92/67/65
f 92/67/65 169/66/64 168/68/66
f 92/67/65 168/68/66 91/69/67
f 91/69/67 168/68/66 167/70/68
f 91/69/67 167/70/68 90/71/69
f 90/71/69 167/70/68 166/72/70
f 90/71/69 166/72/70 89/73/71
f 89/73/71 166/72/70 165/74/72
f 89/73/71 165/74/72 88/75/73
f 88/75/73 165/74/72 164/76/74
f 88/75/73 164/76/74 87/77/75
f 87/77/75 164/76/74 163/78/76
f 87/77/75 163/78/76 86/79/77
f 86/79/77 163/78/76 162/80/78
f 86/79/77 162/80/78 85/81/79
f 85/81/79 162/80/78 161/82/80
f 85/81/79 161/82/80 84/83/81
f 84/83/81 161/82/80 160/84/82
f 84/83/81 160/84/82 83/85/83
f 83/85/83 160/84/82 159/86/84
f 83/85/83 159/86/84 82/87/85
f 82/87/85 159/86/84 158/88/86
f 82/87/85 158/88/86 81/89/87
f 81/89/87 158/88/86 157/90/88
f 81/89/87 157/90/88 80/91/89
f 80/91/89 157/90/88 156/92/90
f 80/91/89 156/92/90 79/93/91
f 79/93/91 156/92/90 155/94/92
f 79/93/91 155/94/92 78/95/93
f 78/95/93 155/94/92 154/96/94
f 78/95/93 154/96/94 77/97/95
f 77/97/95 154/96/94 153/98/96
f 77/97/95 153/98/96 76/99/97
f 76/99/97 153/98/96 152/100/98
f 76/99/97 152/100/98 75/101/99
f 75/101/99 152/100/98 151/102/100
f 75/101/99 151/102/100 74/103/101
f 74/103/101 151/102/100 150/104/102
f 74/103/101 150/104/102 73/105/103
f 73/105/103 150/104/102 149/106/104
f 73/105/103 149/106/104 72/107/105
f 72/107/105 149/106/104 148/108/106
f 72/107/105 148/108/106 71/109/107
f 71/109/107 148/108/106 147/110/108
f 71/109/107 147/110/108 70/111/109
f 70/111/109 147/110/108 146/112/110
f 70/111/109 146/112/110 69/113/111
f 69/113/111 146/112/110 145/114/112
f 69/113/111 145/114/112 68/115/113
f 68/115/113 145/114/112 144/116/114
f 68/115/113 144/116/114 67/117/115
f 67/117/115 144/116/114 143/118/116
f 67/117/115 143/118/116 66/119/117
f 66/119/117 143/118/116 142/120/118
f 66/119/117 142/120/118 65/121/119
f 65/121/119 142/120/118 141/122/120
f 65/121/119 141/122/120 64/123/121
f 64/123/121 141/122/120 140/124/122
f 64/123/121 140/124/122 63/125/123
f 63/125/123 140/124/122 139/126/124
f 63/125/123 139/126/124 62/127/125
f 62/127/125 139/126/124 138/128/126
f 62/127/125 138/128/126 61/129/127
f 61/129/127 138/128/126 137/130/128
f 61/129/127 137/130/128 60/131/129
f 60/131/129 137/130/128 136/132/130
f 60/131/129 136/132/130 59/133/131
f 59/133/131 136/132/130 135/134/132
f 59/133/131 135/134/132 58/57/57
f 58/57/57 135/134/132 134/58/58
f 96/135/133 170/64/62 95/136/134
f 95/136/134 170/64/62 133/62/60
f 95/137/134 133/60/60 132/138/135
f 132/138/135 133/60/60 134/58/58
f 132/138/135 134/58/58 131/139/136
f 131/139/136 134/58/58 135/134/132
f 131/139/136 135/134/132 130/140/137
f 130/140/137 135/134/132 136/132/130
f 130/140/137 136/132/130 129/141/138
f 129/141/138 136/132/130 137/130/128
f 129/141/138 137/130/128 128/142/139
f 128/142/139 137/130/128 138/128/126
f 128/142/139 138/128/126 127/143/140
f 127/143/140 138/128/126 139/126/124
f 127/143/140 139/126/124 126/144/141
f 126/144/141 139/126/124 140/124/122
f 126/144/141 140/124/122 125/145/142
f 125/145/142 140/124/122 141/122/120
f 125/145/142 141/122/120 124/146/143
f 124/146/143 141/122/120 142/120/118
f 124/146/143 142/120/118 123/147/144
f 123/147/144 142/120/118 143/118/116
f 123/147/144 143/118/116 122/148/145
f 122/148/145 143/118/116 144/116/114
f 122/148/145 144/116/114 121/149/146
f 121/149/146 144/116/114 145/114/112
f 121/149/146 145/114/112 120/150/147
f 120/150/147 145/114/112 146/112/110
f 120/150/147 146/112/110 119/151/148
f 119/151/148 146/112/110 147/110/108
f 119/151/148 147/110/108 118/152/149
f 118/152/149 147/110/108 148/108/106
f 118/152/149 148/108/106 117/153/150
f 117/153/150 148/108/106 149/106/104
f 117/153/150 149/106/104 116/154/151
f 116/154/151 149/106/104 150/104/102
f 116/154/151 150/104/102 115/155/152
f 115/155/152 150/104/102 151/102/100
f 115/155/152 151/102/100 114/156/153
f 114/156/153 151/102/100 152/100/98
f 114/156/153 152/100/98 113/157/154
f 113/157/154 152/100/98 153/98/96
f 113/157/154 153/98/96 112/158/155
f 112/158/155 153/98/96 154/96/94
f 112/158/155 154/96/94 111/159/156
f 111/159/156 154/96/94 155/94/92
f 111/159/156 155/94/92 110/160/157
f 110/160/157 155/94/92 156/92/90
f 110/160/157 156/92/90 109/161/158
f 109/161/158 156/92/90 157/90/88
f 109/161/158 157/90/88 108/162/159
f 108/162/159 157/90/88 158/88/86
f 108/162/159 158/88/86 107/163/160
f 107/163/160 158/88/86 159/86/84
f 107/163/160 159/86/84 106/164/161
f 106/164/161 159/86/84 160/84/82
f 106/164/161 160/84/82 105/165/162
f 105/165/162 160/84/82 161/82/80
f 105/165/162 161/82/80 104/166/163
f 104/166/163 161/82/80 162/80/78
f 104/166/163 162/80/78 103/167/164
f 103/167/164 162/80/78 163/78/76
f 103/167/164 163/78/76 102/168/165
f 102/168/165 163/78/76 164/76/74
f 102/168/165 164/76/74 101/169/166
f 101/169/166 164/76/74 165/74/72
f 101/169/166 165/74/72 100/170/167
f 100/170/167 165/74/72 166/72/70
f 100/170/167 166/72/70 99/171/168
f 99/171/168 166/72/70 167/70/68
f 99/171/168 167/70/68 98/172/169
f 98/172/169 167/70/68 168/68/66
f 98/172/169 168/68/66 97/173/170
f 97/173/170 168/68/66 169/66/64
f 97/173/170 169/66/64 96/135/133
f 96/135/133 169/66/64 170/64/62
f 15/174/27 14/175/28 208/176/171
f 208/176/171 14/175/28 171/177/172
f 208/176/171 171/177/172 207/178/173
f 207/178/173 171/177/172 172/179/174
f 207/178/173 172/179/174 206/180/175
f 206/180/175 172/179/174 173/181/176
f 206/180/175 173/181/176 205/182/177
f 205/182/177 173/181/176 174/183/178
f 205/182/177 174/183/178 204/184/179
f 204/184/179 174/183/178 175/185/180
f 204/184/179 175/185/180 203/186/181
f 203/186/181 175/185/180 176/187/182
f 203/186/181 176/187/182 202/188/183
f 202/188/183 176/187/182 177/189/184
f 202/188/183 177/189/184 201/190/185
f 201/190/185 177/189/184 178/191/186
f 201/190/185 178/191/186 200/192/187
f 200/192/187 178/191/186 179/193/188
f 200/192/187 179/193/188 199/194/189
f 199/194/189 179/193/188 180/195/190
f 199/194/189 180/195/190 198/196/191
f 198/196/191 180/195/190 181/197/192
f 198/196/191 181/197/192 197/198/193
f 197/198/193 181/197/192 182/199/194
f 197/198/193 182/199/194 196/200/195
f 196/200/195 182/199/194 183/201/196
f 196/200/195 183/201/196 195/202/197
f 195/202/197 183/201/196 184/203/198
f 195/202/197 184/203/198 194/204/199
f 194/204/199 184/203/198 185/205/200
f 194/204/199 185/205/200 193/206/201
f 193/206/201 185/205/200 186/207/202
f 193/206/201 186/207/202 192/208/203
f 192/208/203 186/207/202 187/209/204
f 192/208/203 187/209/204 191/210/205
f 191/210/205 187/209/204 188/211/206
f 191/210/205 188/211/206 190/212/207
f 190/212/207 188/211/206 189/213/208
f 190/212/207 189/213/208 42/214/56
f 42/214/56 189/213/208 43/215/55
f 209/216/209 210/217/210 212/218/211
f 212/218/211 210/217/210 211/219/212
f 132/220/213 45/221/214 95/222/215
f 95/222/215 45/221/214 44/223/216
f 95/222/215 44/223/216 96/224/217
f 96/224/217 44/223/216 43/225/218
f 96/224/217 43/225/218 97/226/219
f 97/226/219 43/225/218 189/227/220
f 97/226/219 189/227/220 98/228/221
f 98/228/221 189/227/220 188/229/222
f 98/228/221 188/229/222 99/230/223
f 99/230/223 188/229/222 187/231/224
f 99/230/223 187/231/224 186/232/225
f 132/220/213 131/233/226 45/221/214
f 45/221/214 131/233/226 46/234/227
f 46/234/227 131/233/226 130/235/228
f 46/234/227 130/235/228 47/236/229
f 47/236/229 130/235/228 129/237/230
f 47/236/229 129/237/230 228/238/231
f 228/238/231 129/237/230 128/239/232
f 228/238/231 128/239/232 127/240/233
f 127/240/233 126/241/234 228/238/231
f 228/238/231 126/241/234 125/242/235
f 228/238/231 125/242/235 124/243/236
f 228/238/231 124/243/236 227/244/237
f 227/244/237 124/243/236 123/245/238
f 227/244/237 123/245/238 122/246/239
f 122/246/239 121/247/240 227/244/237
f 227/244/237 121/247/240 120/248/241
f 227/244/237 120/248/241 119/249/242
f 119/249/242 118/250/243 227/244/237
f 227/244/237 118/250/243 10/251/244
f 227/244/237 10/251/244 9/252/245
f 118/250/243 117/253/246 10/251/244
f 10/251/244 117/253/246 11/254/247
f 11/254/247 117/253/246 116/255/248
f 11/254/247 116/255/248 12/256/249
f 12/256/249 116/255/248 115/257/250
f 12/256/249 115/257/250 114/258/251
f 12/256/249 114/258/251 13/259/252
f 13/259/252 114/258/251 113/260/253
f 13/259/252 113/260/253 14/261/254
f 14/261/254 113/260/253 112/262/255
f 14/261/254 112/262/255 171/263/256
f 171/263/256 112/262/255 111/264/257
f 171/263/256 111/264/257 172/265/258
f 172/265/258 111/264/257 110/266/259
f 172/265/258 110/266/259 173/267/260
f 173/267/260 110/266/259 174/268/261
f 174/268/261 110/266/259 109/269/262
f 174/268/261 109/269/262 175/270/263
f 175/270/263 109/269/262 108/271/264
f 175/270/263 108/271/264 176/272/265
f 176/272/265 108/271/264 107/273/266
f 176/272/265 107/273/266 177/274/267
f 177/274/267 107/273/266 178/275/268
f 178/275/268 107/273/266 106/276/269
f 178/275/268 106/276/269 179/277/270
f 179/277/270 106/276/269 105/278/271
f 179/277/270 105/278/271 180/279/272
f 180/279/272 105/278/271 104/280/273
f 180/279/272 104/280/273 181/281/274
f 181/281/274 104/280/273 103/282/275
f 181/281/274 103/282/275 182/283/276
f 182/283/276 103/282/275 102/284/277
f 182/283/276 102/284/277 183/285/278
f 183/285/278 102/284/277 184/286/279
f 184/286/279 102/284/277 101/287/280
f 184/286/279 101/287/280 185/288/281
f 185/288/281 101/287/280 100/289/282
f 185/288/281 100/289/282 186/232/225
f 186/232/225 100/289/282 99/230/223
f 211/290/283 221/291/284 212/292/285
f 212/292/285 221/291/284 222/293/286
f 212/292/285 222/293/286 223/294/287
f 213/295/288 215/296/289 211/290/283
f 211/290/283 215/296/289 216/297/290
f 211/290/283 216/297/290 217/298/291
f 213/295/288 214/299/292 215/296/289
f 217/298/291 218/300/293 211/290/283
f 211/290/283 218/300/293 219/301/294
f 211/290/283 219/301/294 220/302/295
f 220/302/295 221/291/284 211/290/283
f 223/294/287 224/303/296 212/292/285
f 212/292/285 224/303/296 245/304/297
f 245/304/297 224/303/296 225/305/298
f 245/304/297 225/305/298 1/306/299
f 1/306/299 225/305/298 2/307/300
f 2/307/300 225/305/298 3/308/301
f 3/308/301 225/305/298 226/309/302
f 3/308/301 226/309/302 4/310/303
f 4/310/303 226/309/302 5/311/304
f 5/311/304 226/309/302 227/244/237
f 5/311/304 227/244/237 6/312/305
f 6/312/305 227/244/237 7/313/306
f 7/313/306 227/244/237 8/314/307
f 8/314/307 227/244/237 9/252/245
f 229/315/308 52/316/309 228/238/231
f 228/238/231 52/316/309 51/317/310
f 228/238/231 51/317/310 50/318/311
f 230/319/312 54/320/313 229/315/308
f 229/315/308 54/320/313 53/321/314
f 229/315/308 53/321/314 52/316/309
f 231/322/315 244/323/316 230/319/312
f 230/319/312 244/323/316 56/324/317
f 230/319/312 56/324/317 55/325/318
f 244/323/316 231/322/315 243/326/319
f 243/326/319 231/322/315 232/327/320
f 243/326/319 232/327/320 233/328/321
f 233/328/321 234/329/322 243/326/319
f 243/326/319 234/329/322 242/330/323
f 242/330/323 234/329/322 235/331/324
f 242/330/323 235/331/324 236/332/325
f 236/332/325 237/333/326 242/330/323
f 242/330/323 237/333/326 238/334/327
f 242/330/323 238/334/327 239/335/328
f 240/336/329 241/337/330 239/335/328
f 239/335/328 241/337/330 242/330/323
f 55/325/318 54/320/313 230/319/312
f 50/318/311 49/338/331 228/238/231
f 228/238/231 49/338/331 48/339/332
f 228/238/231 48/339/332 47/236/229
f 210/340/333 275/341/334 211/342/335
f 211/342/335 275/341/334 276/343/336
f 211/342/335 276/343/336 277/344/337
f 246/345/338 263/346/339 210/340/333
f 210/340/333 263/346/339 264/347/340
f 210/340/333 264/347/340 265/348/341
f 242/349/342 251/350/343 246/345/338
f 246/345/338 251/350/343 252/351/344
f 246/345/338 252/351/344 253/352/345
f 241/353/346 247/354/347 242/349/342
f 242/349/342 247/354/347 248/355/348
f 242/349/342 248/355/348 249/356/349
f 249/356/349 250/357/350 242/349/342
f 242/349/342 250/357/350 251/350/343
f 253/352/345 254/358/351 246/345/338
f 246/345/338 254/358/351 255/359/352
f 246/345/338 255/359/352 256/360/353
f 256/360/353 257/361/354 246/345/338
f 246/345/338 257/361/354 258/362/355
f 246/345/338 258/362/355 259/363/356
f 259/363/356 260/364/357 246/345/338
f 246/345/338 260/364/357 261/365/358
f 246/345/338 261/365/358 262/366/359
f 262/366/359 263/346/339 246/345/338
f 265/348/341 266/367/360 210/340/333
f 210/340/333 266/367/360 267/368/361
f 210/340/333 267/368/361 268/369/362
f 268/369/362 269/370/363 210/340/333
f 210/340/333 269/370/363 270/371/364
f 210/340/333 270/371/364 271/372/365
f 271/372/365 272/373/366 210/340/333
f 210/340/333 272/373/366 273/374/367
f 210/340/333 273/374/367 274/375/368
f 274/375/368 275/341/334 210/340/333
f 277/344/337 278/376/369 211/342/335
f 211/342/335 278/376/369 279/377/370
f 211/342/335 279/377/370 213/378/371
f 246/379/372 280/380/373 242/381/374
f 242/381/374 280/380/373 243/382/375
f 282/383/376 288/384/377 281/385/378
f 281/385/378 288/384/377 289/386/379
f 281/385/378 289/386/379 290/387/380
f 290/387/380 289/386/379 294/388/381
f 290/387/380 294/388/381 295/389/382
f 295/389/382 294/388/381 299/390/383
f 295/389/382 299/390/383 236/391/384
f 236/391/384 299/390/383 237/392/385
f 237/392/385 299/390/383 303/393/386
f 237/392/385 303/393/386 238/394/387
f 238/394/387 303/393/386 307/395/388
f 238/394/387 307/395/388 239/396/389
f 239/396/389 307/395/388 306/397/390
f 239/396/389 306/397/390 305/398/391
f 305/398/391 306/397/390 301/399/392
f 305/398/391 301/399/392 300/400/393
f 300/400/393 301/399/392 296/401/394
f 300/400/393 296/401/394 284/402/395
f 284/402/395 296/401/394 283/403/396
f 283/403/396 296/401/394 292/404/397
f 283/403/396 292/404/397 282/383/376
f 282/383/376 292/404/397 288/384/377
f 284/402/395 285/405/398 300/400/393
f 300/400/393 285/405/398 304/406/399
f 300/400/393 304/406/399 305/398/391
f 305/398/391 304/406/399 287/407/400
f 305/398/391 287/407/400 239/396/389
f 285/405/398 286/408/401 304/406/399
f 304/406/399 286/408/401 287/407/400
f 236/391/384 235/409/402 295/389/382
f 295/389/382 235/409/402 291/410/403
f 295/389/382 291/410/403 290/387/380
f 290/387/380 291/410/403 233/411/404
f 290/387/380 233/411/404 281/385/378
f 235/409/402 234/412/405 291/410/403
f 291/410/403 234/412/405 233/411/404
f 289/386/379 288/384/377 293/413/406
f 293/413/406 288/384/377 292/404/397
f 293/413/406 292/404/397 297/414/407
f 297/414/407 292/404/397 296/401/394
f 297/414/407 296/401/394 301/399/392
f 289/386/379 293/413/406 294/388/381
f 294/388/381 293/413/406 298/415/408
f 294/388/381 298/415/408 299/390/383
f 299/390/383 298/415/408 303/393/386
f 298/415/408 293/413/406 297/414/407
f 298/415/408 297/414/407 302/416/409
f 302/416/409 297/414/407 301/399/392
f 302/416/409 301/399/392 306/397/390
f 307/395/388 303/393/386 302/416/409
f 302/416/409 303/393/386 298/415/408
f 307/395/388 302/416/409 306/397/390
f 308/417/410 281/418/411 232/419/412
f 232/419/412 281/418/411 233/420/413
f 309/421/414 326/422/415 287/423/400
f 287/423/400 326/422/415 327/424/416
f 287/423/400 327/424/416 328/425/417
f 215/426/418 313/427/419 309/421/414
f 309/421/414 313/427/419 314/428/420
f 309/421/414 314/428/420 315/429/421
f 214/430/422 310/431/423 215/426/418
f 215/426/418 310/431/423 311/432/424
f 215/426/418 311/432/424 312/433/425
f 312/433/425 313/427/419 215/426/418
f 315/429/421 316/434/426 309/421/414
f 309/421/414 316/434/426 317/435/427
f 309/421/414 317/435/427 318/436/428
f 318/436/428 319/437/429 309/421/414
f 309/421/414 319/437/429 320/438/430
f 309/421/414 320/438/430 321/439/431
f 321/439/431 322/440/432 309/421/414
f 309/421/414 322/440/432 323/441/433
f 309/421/414 323/441/433 324/442/434
f 324/442/434 325/443/435 309/421/414
f 309/421/414 325/443/435 326/422/415
f 328/425/417 329/444/436 287/423/400
f 287/423/400 329/444/436 330/445/437
f 287/423/400 330/445/437 331/446/438
f 331/446/438 332/447/439 287/423/400
f 287/423/400 332/447/439 333/448/440
f 287/423/400 333/448/440 334/449/441
f 334/449/441 335/450/442 287/423/400
f 287/423/400 335/450/442 336/451/443
f 287/423/400 336/451/443 337/452/444
f 337/452/444 338/453/445 287/423/400
f 287/423/400 338/453/445 339/454/446
f 287/423/400 339/454/446 239/455/389
f 239/455/389 339/454/446 340/456/447
f 239/455/389 340/456/447 341/457/448
f 341/457/448 342/458/449 239/455/389
f 239/455/389 342/458/449 240/459/450
f 343/460/451 344/461/452 222/462/453
f 222/462/453 344/461/452 223/463/454
f 345/464/455 351/465/456 309/466/457
f 309/466/457 351/465/456 352/467/458
f 309/466/457 352/467/458 353/468/459
f 353/468/459 352/467/458 357/469/460
f 353/468/459 357/469/460 358/470/461
f 358/470/461 357/469/460 362/471/462
f 358/470/461 362/471/462 218/472/463
f 218/472/463 362/471/462 219/473/464
f 219/473/464 362/471/462 366/474/465
f 219/473/464 366/474/465 220/475/466
f 220/475/466 366/474/465 370/476/467
f 220/475/466 370/476/467 221/477/468
f 221/477/468 370/476/467 374/478/469
f 221/477/468 374/478/469 222/479/453
f 222/479/453 374/478/469 373/480/470
f 222/479/453 373/480/470 372/481/471
f 372/481/471 373/480/470 368/482/472
f 372/481/471 368/482/472 367/483/473
f 367/483/473 368/482/472 363/484/474
f 367/483/473 363/484/474 348/485/475
f 348/485/475 363/484/474 347/486/476
f 347/486/476 363/484/474 359/487/477
f 347/486/476 359/487/477 346/488/478
f 346/488/478 359/487/477 355/489/479
f 346/488/478 355/489/479 345/464/455
f 345/464/455 355/489/479 351/465/456
f 348/485/475 349/490/480 367/483/473
f 367/483/473 349/490/480 371/491/481
f 367/483/473 371/491/481 372/481/471
f 372/481/471 371/491/481 343/492/451
f 372/481/471 343/492/451 222/479/453
f 349/490/480 350/493/482 371/491/481
f 371/491/481 350/493/482 343/492/451
f 218/472/463 217/494/483 358/470/461
f 358/470/461 217/494/483 354/495/484
f 358/470/461 354/495/484 353/468/459
f 353/468/459 354/495/484 215/496/485
f 353/468/459 215/496/485 309/466/457
f 217/494/483 216/497/486 354/495/484
f 354/495/484 216/497/486 215/496/485
f 352/467/458 351/465/456 356/498/487
f 356/498/487 351/465/456 355/489/479
f 356/498/487 355/489/479 360/499/488
f 360/499/488 355/489/479 359/487/477
f 360/499/488 359/487/477 364/500/489
f 364/500/489 359/487/477 363/484/474
f 364/500/489 363/484/474 368/482/472
f 352/467/458 356/498/487 357/469/460
f 357/469/460 356/498/487 361/501/490
f 357/469/460 361/501/490 362/471/462
f 362/471/462 361/501/490 366/474/465
f 361/501/490 356/498/487 360/499/488
f 361/501/490 360/499/488 365/502/491
f 365/502/491 360/499/488 364/500/489
f 365/502/491 364/500/489 369/503/492
f 369/503/492 364/500/489 368/482/472
f 369/503/492 368/482/472 373/480/470
f 370/476/467 366/474/465 365/502/491
f 365/502/491 366/474/465 361/501/490
f 370/476/467 365/502/491 369/503/492
f 374/478/469 370/476/467 369/503/492
f 374/478/469 369/503/492 373/480/470
f 94/504/493 41/505/494 57/506/495
f 57/506/495 41/505/494 40/507/496
f 57/506/495 40/507/496 58/508/497
f 58/508/497 40/507/496 59/509/498
f 59/509/498 40/507/496 39/510/499
f 59/509/498 39/510/499 60/511/500
f 60/511/500 39/510/499 38/512/501
f 60/511/500 38/512/501 61/513/502
f 61/513/502 38/512/501 380/514/503
f 61/513/502 380/514/503 62/515/504
f 62/515/504 380/514/503 63/516/505
f 63/516/505 380/514/503 64/517/506
f 64/517/506 380/514/503 65/518/507
f 65/518/507 380/514/503 66/519/508
f 66/519/508 380/514/503 381/520/509
f 66/519/508 381/520/509 67/521/510
f 67/521/510 381/520/509 68/522/511
f 68/522/511 381/520/509 69/523/512
f 69/523/512 381/520/509 70/524/513
f 70/524/513 381/520/509 71/525/514
f 71/525/514 381/520/509 72/526/515
f 72/526/515 381/520/509 19/527/516
f 72/526/515 19/527/516 73/528/517
f 73/528/517 19/527/516 18/529/518
f 73/528/517 18/529/518 74/530/519
f 74/530/519 18/529/518 17/531/520
f 74/530/519 17/531/520 75/532/521
f 75/532/521 17/531/520 76/533/522
f 76/533/522 17/531/520 16/534/523
f 76/533/522 16/534/523 77/535/524
f 77/535/524 16/534/523 15/536/525
f 77/535/524 15/536/525 78/537/526
f 78/537/526 15/536/525 208/538/527
f 78/537/526 208/538/527 79/539/528
f 79/539/528 208/538/527 207/540/529
f 79/539/528 207/540/529 80/541/530
f 80/541/530 207/540/529 206/542/531
f 80/541/530 206/542/531 205/543/532
f 41/505/494 94/504/493 42/544/533
f 42/544/533 94/504/493 93/545/534
f 42/544/533 93/545/534 190/546/535
f 190/546/535 93/545/534 92/547/536
f 190/546/535 92/547/536 191/548/537
f 191/548/537 92/547/536 91/549/538
f 191/548/537 91/549/538 192/550/539
f 192/550/539 91/549/538 193/551/540
f 193/551/540 91/549/538 90/552/541
f 193/551/540 90/552/541 194/553/542
f 194/553/542 90/552/541 89/554/543
f 194/553/542 89/554/543 195/555/544
f 195/555/544 89/554/543 88/556/545
f 195/555/544 88/556/545 196/557/546
f 196/557/546 88/556/545 197/558/547
f 197/558/547 88/556/545 87/559/548
f 197/558/547 87/559/548 198/560/549
f 198/560/549 87/559/548 86/561/550
f 198/560/549 86/561/550 199/562/551
f 199/562/551 86/561/550 85/563/552
f 199/562/551 85/563/552 200/564/553
f 200/564/553 85/563/552 84/565/554
f 200/564/553 84/565/554 201/566/555
f 201/566/555 84/565/554 83/567/556
f 201/566/555 83/567/556 202/568/557
f 202/568/557 83/567/556 203/569/558
f 203/569/558 83/567/556 82/570/559
f 203/569/558 82/570/559 204/571/560
f 204/571/560 82/570/559 81/572/561
f 204/571/560 81/572/561 205/543/532
f 205/543/532 81/572/561 80/541/530
f 209/573/562 350/574/563 210/575/564
f 210/575/564 350/574/563 349/576/565
f 210/575/564 349/576/565 348/577/566
f 375/578/567 384/579/568 209/573/562
f 209/573/562 384/579/568 344/580/569
f 209/573/562 344/580/569 343/581/570
f 384/579/568 375/578/567 383/582/571
f 383/582/571 375/578/567 28/583/572
f 383/582/571 28/583/572 27/584/573
f 27/584/573 26/585/574 383/582/571
f 383/582/571 26/585/574 382/586/575
f 382/586/575 26/585/574 25/587/576
f 382/586/575 25/587/576 24/588/577
f 382/586/575 24/588/577 381/520/509
f 381/520/509 24/588/577 23/589/578
f 381/520/509 23/589/578 22/590/579
f 22/590/579 21/591/580 381/520/509
f 381/520/509 21/591/580 20/592/581
f 381/520/509 20/592/581 19/527/516
f 38/512/501 37/593/582 380/514/503
f 380/514/503 37/593/582 36/594/583
f 380/514/503 36/594/583 35/595/584
f 35/595/584 34/596/585 380/514/503
f 380/514/503 34/596/585 33/597/586
f 380/514/503 33/597/586 379/598/587
f 379/598/587 33/597/586 32/599/588
f 379/598/587 32/599/588 31/600/589
f 379/598/587 31/600/589 378/601/590
f 378/601/590 31/600/589 30/602/591
f 378/601/590 30/602/591 29/603/592
f 29/603/592 376/604/593 378/601/590
f 378/601/590 376/604/593 377/605/594
f 377/605/594 376/604/593 280/606/595
f 377/605/594 280/606/595 308/607/596
f 308/607/596 280/606/595 281/608/597
f 281/608/597 280/606/595 282/609/598
f 282/609/598 280/606/595 246/610/599
f 282/609/598 246/610/599 283/611/600
f 283/611/600 246/610/599 284/612/601
f 284/612/601 246/610/599 285/613/602
f 285/613/602 246/610/599 286/614/603
f 286/614/603 246/610/599 287/615/604
f 287/615/604 246/610/599 309/616/605
f 309/616/605 246/610/599 210/575/564
f 309/616/605 210/575/564 345/617/606
f 345/617/606 210/575/564 346/618/607
f 346/618/607 210/575/564 347/619/608
f 347/619/608 210/575/564 348/577/566
f 343/581/570 350/574/563 209/573/562
f 232/620/609 231/621/610 308/622/611
f 308/622/611 231/621/610 377/623/612
f 241/624/613 240/625/614 247/626/615
f 247/626/615 240/625/614 342/627/616
f 247/626/615 342/627/616 248/628/617
f 248/628/617 342/627/616 341/629/618
f 248/628/617 341/629/618 249/630/619
f 249/630/619 341/629/618 340/631/620
f 249/630/619 340/631/620 250/632/621
f 250/632/621 340/631/620 339/633/622
f 250/632/621 339/633/622 251/634/623
f 251/634/623 339/633/622 338/635/624
f 251/634/623 338/635/624 252/636/625
f 252/636/625 338/635/624 337/637/626
f 252/636/625 337/637/626 253/638/627
f 253/638/627 337/637/626 336/639/628
f 253/638/627 336/639/628 254/640/629
f 254/640/629 336/639/628 335/641/630
f 254/640/629 335/641/630 255/642/631
f 255/642/631 335/641/630 334/643/632
f 255/642/631 334/643/632 256/644/633
f 256/644/633 334/643/632 333/645/634
f 256/644/633 333/645/634 257/646/635
f 257/646/635 333/645/634 332/647/636
f 257/646/635 332/647/636 258/648/637
f 258/648/637 332/647/636 331/649/638
f 258/648/637 331/649/638 259/650/639
f 259/650/639 331/649/638 330/651/640
f 259/650/639 330/651/640 260/652/641
f 260/652/641 330/651/640 329/653/642
f 260/652/641 329/653/642 261/654/643
f 261/654/643 329/653/642 328/655/644
f 261/654/643 328/655/644 262/656/645
f 262/656/645 328/655/644 327/657/646
f 262/656/645 327/657/646 263/658/647
f 263/658/647 327/657/646 326/659/648
f 263/658/647 326/659/648 264/660/649
f 264/660/649 326/659/648 325/661/650
f 264/660/649 325/661/650 265/662/651
f 265/662/651 325/661/650 324/663/652
f 265/662/651 324/663/652 266/664/653
f 266/664/653 324/663/652 323/665/654
f 266/664/653 323/665/654 267/666/655
f 267/666/655 323/665/654 322/667/656
f 267/666/655 322/667/656 268/668/657
f 268/668/657 322/667/656 321/669/658
f 268/668/657 321/669/658 269/670/659
f 269/670/659 321/669/658 320/671/660
f 269/670/659 320/671/660 270/672/661
f 270/672/661 320/671/660 319/673/662
f 270/672/661 319/673/662 271/674/663
f 271/674/663 319/673/662 318/675/664
f 271/674/663 318/675/664 272/676/665
f 272/676/665 318/675/664 317/677/666
f 272/676/665 317/677/666 273/678/667
f 273/678/667 317/677/666 316/679/668
f 273/678/667 316/679/668 274/680/669
f 274/680/669 316/679/668 315/681/670
f 274/680/669 315/681/670 275/682/671
f 275/682/671 315/681/670 314/683/672
f 275/682/671 314/683/672 276/684/673
f 276/684/673 314/683/672 313/685/674
f 276/684/673 313/685/674 277/686/675
f 277/686/675 313/685/674 312/687/676
f 277/686/675 312/687/676 278/688/677
f 278/688/677 312/687/676 311/689/678
f 278/688/677 311/689/678 279/690/679
f 279/690/679 311/689/678 310/691/680
f 279/690/679 310/691/680 213/692/681
f 213/692/681 310/691/680 214/693/682
f 379/694/683 378/695/684 229/696/685
f 229/696/685 378/695/684 230/697/686
f 378/698/687 377/699/688 230/700/689
f 230/700/689 377/699/688 231/701/690
f 344/702/691 384/703/692 223/704/693
f 223/704/693 384/703/692 224/705/694
f 384/706/695 383/707/696 224/708/697
f 224/708/697 383/707/696 225/709/698
f 383/710/699 382/711/700 225/712/701
f 225/712/701 382/711/700 226/713/702
f 229/714/703 228/715/704 379/716/705
f 379/716/705 228/715/704 380/717/706
f 382/718/707 381/719/708 226/720/709
f 226/720/709 381/719/708 227/721/710
f 228/722/711 227/723/712 380/724/713
f 380/724/713 227/723/712 381/725/714
f 56/726/715 244/727/716 29/728/717
f 29/728/717 244/727/716 376/729/718
f 243/730/719 280/731/720 244/732/721
f 244/732/721 280/731/720 376/733/722
f 28/734/723 375/735/724 1/736/725
f 1/736/725 375/735/724 245/737/726
f 209/738/727 212/739/728 375/740/729
f 375/740/729 212/739/728 245/741/730
# 384 vertices
# 741 texture params
# 730 normals
# 772 facets

# 1 groups
